<svg width="30" height="30" xmlns="http://www.w3.org/2000/svg"><g fill="none" fill-rule="evenodd"><circle fill="#FFC43A" cx="15" cy="15" r="15"/><g fill="#FFF"><path d="M23.904 10.786a5.202 5.202 0 00-.365-1.468l-1.84 1.023 2.205.445zm-6.303-4.601a5.256 5.256 0 012.154-.007l-.802 2.406-1.352-2.4zm2.193 3.771l1.13-3.389c.806.38 1.5.96 2.016 1.675l-3.102 1.723-.044-.009z"/><path d="M15.308 22.16l-3.053 1.397c-2.01.92-3.435-.104-3.18-2.31l.385-3.336-2.272-2.471c-1.496-1.628-.962-3.3 1.215-3.739l3.29-.664 1.65-2.924c1.085-1.926 2.84-1.936 3.93 0l1.649 2.924 3.29.664c2.168.437 2.719 2.103 1.215 3.739l-2.272 2.471.386 3.335c.254 2.196-1.16 3.235-3.18 2.31l-3.053-1.396z"/></g></g></svg>