<?xml version="1.0" encoding="UTF-8"?>
<svg width="96px" height="96px" viewBox="0 0 96 96" version="1.1" xmlns="http://www.w3.org/2000/svg" xmlns:xlink="http://www.w3.org/1999/xlink">
    <!-- Generator: Sketch 52.1 (67048) - http://www.bohemiancoding.com/sketch -->
    <title>添加</title>
    <desc>Created with Sketch.</desc>
    <g id="添加" stroke="none" stroke-width="1" fill="none" fill-rule="evenodd">
        <g id="Group-2">
            <g id="等待icon" fill="#C02C38" fill-rule="nonzero">
                <path d="M48,96 C21.4912,96 0,74.5088 0,48 C0,21.4912 21.4912,0 48,0 C74.5088,0 96,21.4912 96,48 C96,74.5088 74.5088,96 48,96 Z" id="Shape"></path>
            </g>
            <path d="M23.8928571,49.7857143 C23.2402455,49.25 23,49.0108649 23,48.8928571 L23,47.1071429 C23,46.992698 23.2377734,46.75 23.8928571,46.2142857 L46.2142857,46.2142857 L46.2142857,23.8928571 C46.75,23.2402455 46.9891351,23 47.1071429,23 L48.8928571,23 C49.007302,23 49.25,23.2377734 49.7857143,23.8928571 L49.7857143,46.2142857 L72.1071429,46.2142857 C72.7597545,46.75 73,46.9891351 73,47.1071429 L73,48.8928571 C73,49.007302 72.7622266,49.25 72.1071429,49.7857143 L49.7857143,49.7857143 L49.7857143,72.1071429 C49.25,72.7597545 49.0108649,73 48.8928571,73 L47.1071429,73 C46.992698,73 46.75,72.7622266 46.2142857,72.1071429 L46.2142857,49.7857143 L23.8928571,49.7857143 Z" id="Fill-57" fill-opacity="0.9" fill="#FFFFFF"></path>
        </g>
    </g>
</svg>