<?xml version="1.0" encoding="UTF-8"?>
<svg width="48px" height="48px" viewBox="0 0 48 48" version="1.1" xmlns="http://www.w3.org/2000/svg" xmlns:xlink="http://www.w3.org/1999/xlink">
    <!-- Generator: Sketch 52.1 (67048) - http://www.bohemiancoding.com/sketch -->
    <title>iconfinder_trash_can_1891405</title>
    <desc>Created with Sketch.</desc>
    <g id="组件" stroke="none" stroke-width="1" fill="none" fill-rule="evenodd">
        <g id="iconfinder_trash_can_1891405" fill="#C02C38">
            <path d="M41.0016045,12 L41.0016045,43.6515541 C40.8029894,44.8035341 39.4189269,46.0581633 38.25,46.0411691 L9.75,46.0411691 C8.58107311,46.0581633 7.22408896,44.8035341 7.02547393,43.6515541 L7.02547393,12 L41.0016045,12 Z M5,10 L5,43.6515541 C5.14055102,46.1495705 7.24919227,48.0788513 9.75,47.9975205 L38.25,47.9975205 C40.7508077,48.0788513 42.859449,46.1495705 43,43.6515541 L43,10 L5,10 Z" id="Shape" fill-rule="nonzero"></path>
            <rect id="Rectangle" x="27" y="17" width="2" height="21"></rect>
            <rect id="Rectangle" x="34" y="19" width="2" height="19"></rect>
            <rect id="Rectangle" x="19" y="17" width="2" height="21"></rect>
            <rect id="Rectangle" x="12" y="19" width="2" height="19"></rect>
            <path d="M30.048,2 C31.9740701,1.97321051 33.9606057,4.07404135 34,5.99986236 L34,10 L14,10 L14,5.83210428 C14.0393943,3.90628326 16.0259299,1.97321051 17.952,2 L29.952,2 L30.048,2 Z M29.952,0.000202875605 L17.952,0.000202875605 C14.7005415,-0.0264726496 12.0395438,2.58083177 12,5.83210428 L12,12 L36,12 L36,5.83210428 C35.9604562,2.58083177 33.2994585,-0.0264726496 30.048,0.000202875605 L29.952,0.000202875605 Z" id="Shape" fill-rule="nonzero"></path>
            <rect id="Rectangle" x="0" y="10" width="48" height="2"></rect>
        </g>
    </g>
</svg>