<?xml version="1.0" encoding="UTF-8"?>
<svg width="262px" height="311px" viewBox="0 0 262 311" version="1.1" xmlns="http://www.w3.org/2000/svg" xmlns:xlink="http://www.w3.org/1999/xlink">
    <!-- Generator: Sketch 52.1 (67048) - http://www.bohemiancoding.com/sketch -->
    <title>Group 2</title>
    <desc>Created with Sketch.</desc>
    <g id="组件" stroke="none" stroke-width="1" fill="none" fill-rule="evenodd">
        <g id="头像默认" fill="#F1F1F1">
            <g id="Group-2">
                <path d="M262,243.032195 L262,303.994596 C262,307.009154 260.33601,309.634539 257.875188,311 L4.12697696,311 C1.66586877,309.634245 3.12638804e-13,307.008228 3.12638804e-13,303.994596 L3.12638804e-13,243.805868 C18.471448,239.043287 42.7368606,232.767826 58.331,228.661538 C67.187,226.446154 84.53,222.015385 84.53,207.246154 C84.53,192.476923 84.53,167 84.53,167 L180.47,167 C180.47,167 180.47,192.476923 180.47,207.246154 C180.47,222.015385 197.813,226.446154 206.669,228.661538 C221.432183,232.549016 243.967138,238.380652 262,243.032195 Z" id="Combined-Shape"></path>
                <path d="M130.754149,0 C201.982876,0 207.94968,50.9947461 208.322605,55.7985989 C212.424783,99.7723292 197.134847,159.635727 182.963687,180.329247 C168.046676,202.131349 146.417011,210.260946 132.618776,211 C131.872925,211 131.872925,211 131.5,211 C131.127075,211 131.127075,211 130.754149,211 C116.582989,209.891419 94.9533237,201.761821 80.036313,179.95972 C65.8651528,159.2662 50.5752169,99.4028021 54.6773948,55.0595447 C55.0503201,50.6252189 59.5254233,0 130.754149,0 Z" id="head"></path>
            </g>
        </g>
    </g>
</svg>