<?xml version="1.0" encoding="UTF-8"?>
<svg width="40px" height="40px" viewBox="0 0 40 40" version="1.1" xmlns="http://www.w3.org/2000/svg" xmlns:xlink="http://www.w3.org/1999/xlink">
    <!-- Generator: Sketch 57.1 (83088) - https://sketch.com -->
    <title>icon_删除</title>
    <desc>Created with Sketch.</desc>
    <g id="icon_删除" stroke="none" stroke-width="1" fill="none" fill-rule="evenodd">
        <g fill="#DDDDDD" id="Combined-Shape">
            <path d="M20,0 C31.045695,0 40,8.954305 40,20 C40,31.045695 31.045695,40 20,40 C8.954305,40 0,31.045695 0,20 C0,8.954305 8.954305,0 20,0 Z M11.2987443,11.0025671 C10.8009041,11.4833258 10.7557121,12.2450974 11.165048,12.7723584 L11.2597206,12.8815656 L17.749,19.601 L11.0291433,26.0913294 C10.5381814,26.5654458 10.4949294,27.3301168 10.9072393,27.8606373 L11.0025671,27.9705452 C11.5176657,28.5039454 12.3553557,28.5177239 12.8815656,28.0095689 L12.8815656,28.0095689 L19.601,21.519 L26.0913294,28.2401462 C26.5654458,28.731108 27.3301168,28.77436 27.8606373,28.3620502 L27.9705452,28.2667223 L28.0702962,28.1595893 C28.4725223,27.6783356 28.484339,26.9865305 28.1042414,26.496931 L28.0095689,26.3877238 L21.519,19.667 L28.2401462,13.17796 C28.731108,12.7038437 28.77436,11.9391726 28.3620502,11.4086521 L28.2667223,11.2987443 L28.1595893,11.1989932 C27.6413161,10.7658266 26.8788531,10.7854426 26.3877238,11.2597206 L26.3877238,11.2597206 L19.667,17.749 L13.17796,11.0291433 C12.6699782,10.5031127 11.8284515,10.4910348 11.2987443,11.0025671 Z"></path>
        </g>
    </g>
</svg>