<?xml version="1.0" encoding="UTF-8"?>
<svg width="24px" height="24px" viewBox="0 0 24 24" version="1.1" xmlns="http://www.w3.org/2000/svg" xmlns:xlink="http://www.w3.org/1999/xlink">
    <title>Icon-tubiaoshangchuanmoban@2x</title>
    <g id="0805" stroke="none" stroke-width="1" fill="none" fill-rule="evenodd">
        <g id="3.-本人信息登记-来源地境内" transform="translate(-150.000000, -3064.000000)" fill-rule="nonzero">
            <g id="编组-2" transform="translate(40.000000, 2950.000000)">
                <g id="编组" transform="translate(110.000000, 114.000000)">
                    <rect id="矩形" fill="#000000" opacity="0" x="0" y="0" width="24" height="24"></rect>
                    <path d="M22.4034,21.93636 C22.857,21.93636 23.22564,22.30476 23.22564,22.7586 C23.22564,23.21244 22.85712,23.58072 22.4034,23.58072 L1.5846,23.58072 C1.13112,23.58072 0.7626,23.21244 0.7626,22.7586 C0.7626,22.30476 1.13112,21.93636 1.5846,21.93636 L22.4034,21.93636 Z M22.39332,7.03284 L9.3522,20.0742 L4.2666,20.59284 L4.78536,15.50988 L16.12476,4.16808 L17.8266,2.46624 C18.59112,1.7016 19.92456,1.7016 20.68908,2.46624 L22.39104,4.16808 C22.7716851,4.54706553 22.985513,5.06217888 22.9851867,5.59932 C22.9879305,6.13715909 22.7747116,6.65360525 22.39332,7.03284 Z M6.10896,18.75312 L8.6028,18.4974 L18.94968,8.15064 L16.70868,5.91 L6.36192,16.25676 L6.10896,18.75312 Z M19.26036,3.51876 C19.16004,3.51876 19.06236,3.55884 18.98964,3.62916 L17.8692,4.74936 L20.10996,6.99012 L21.2304,5.86992 C21.303,5.7972 21.3432,5.70192 21.3432,5.5992 C21.3428985,5.49759013 21.3023367,5.40024184 21.2304,5.32848 L19.53096,3.62916 C19.458642,3.55842858 19.3615174,3.51880347 19.26036,3.51876 Z" id="形状" fill="#3298FA"></path>
                </g>
            </g>
        </g>
    </g>
</svg>