<?xml version="1.0" encoding="UTF-8"?>
<svg width="40px" height="40px" viewBox="0 0 40 40" version="1.1" xmlns="http://www.w3.org/2000/svg" xmlns:xlink="http://www.w3.org/1999/xlink">
    <title>文档 (2)</title>
    <g id="0805" stroke="none" stroke-width="1" fill="none" fill-rule="evenodd">
        <g id="1.-首页-本人信息扫码登记位置" transform="translate(-630.000000, -740.000000)" fill="#0D8CE6" fill-rule="nonzero">
            <g id="文档-(2)" transform="translate(630.000000, 740.000000)">
                <polygon id="路径" points="12.3425 0 28.141875 0 28.141875 9.87460938 12.3425 9.87460938"></polygon>
                <path d="M7.94832031,2.97027344 C4.67619312,2.97027344 2.02355469,5.62287281 2.02355469,8.895 L2.02355469,40 L38.4608203,40 L38.4608203,8.89503906 C38.4608203,5.62288136 35.8082124,2.97027344 32.5360547,2.97027344 L7.94832031,2.97027344 Z M34.5109766,36.0501563 L5.97339844,36.0501563 L5.97339844,8.89503906 C5.97339844,7.80431983 6.85760108,6.92011719 7.94832031,6.92011719 L32.5360547,6.92011719 C33.6267739,6.92011719 34.5109766,7.80431983 34.5109766,8.89503906 L34.5109766,36.0501563 Z" id="形状"></path>
                <path d="M26.1669531,13.0423437 L14.3174219,13.0423437 C13.2267026,13.0423437 12.3425,13.9265464 12.3425,15.0172656 C12.3425,16.1079849 13.2267026,16.9921875 14.3174219,16.9921875 L26.1669531,16.9921875 C27.2576724,16.9921875 28.141875,16.1079849 28.141875,15.0172656 C28.141875,13.9265464 27.2576724,13.0423437 26.1669531,13.0423437 Z M14.3174219,24.1019531 L20.2421875,24.1019531 C21.3329067,24.1019531 22.2171093,23.2177505 22.2171093,22.1270312 C22.2171093,21.036312 21.3329067,20.1521094 20.2421875,20.1521094 L14.3174219,20.1521094 C13.2267027,20.1521094 12.3425001,21.036312 12.3425001,22.1270312 C12.3425001,23.2177505 13.2267027,24.1019531 14.3174219,24.1019531 Z M26.1669531,27.2617187 L14.3174219,27.2617187 C13.2267026,27.2617187 12.3425,28.1459214 12.3425,29.2366406 C12.3425,30.3273599 13.2267026,31.2115625 14.3174219,31.2115625 L26.1669531,31.2115625 C27.2576724,31.2115625 28.141875,30.3273599 28.141875,29.2366406 C28.141875,28.1459214 27.2576724,27.2617187 26.1669531,27.2617187 Z" id="形状"></path>
            </g>
        </g>
    </g>
</svg>