<svg width="40" height="40" xmlns="http://www.w3.org/2000/svg"><path d="M20 0c11.046 0 20 8.954 20 20s-8.954 20-20 20S0 31.046 0 20 8.954 0 20 0zm-.002 10l-.143.006a1.645 1.645 0 00-1.504 1.645v6.582h-6.744c-.856 0-1.562.662-1.634 1.505l-.006.142.006.143a1.638 1.638 0 001.634 1.504l6.744-.001v6.583c0 .864.662 1.573 1.505 1.645l.142.006.143-.006a1.645 1.645 0 001.503-1.645v-6.583h6.722c.856 0 1.562-.661 1.634-1.504l.006-.142-.006-.143a1.638 1.638 0 00-1.634-1.504h-6.722v-6.582c0-.864-.661-1.573-1.504-1.645L19.998 10z" fill="#191919" fill-rule="evenodd" opacity=".16"/></svg>