<?xml version="1.0" encoding="UTF-8"?>
<svg width="150px" height="107px" viewBox="0 0 150 107" version="1.1" xmlns="http://www.w3.org/2000/svg" xmlns:xlink="http://www.w3.org/1999/xlink">
    <!-- Generator: Sketch 63.1 (92452) - https://sketch.com -->
    <title>cloud, scurity</title>
    <desc>Created with Sketch.</desc>
    <defs>
        <linearGradient x1="20.5998359%" y1="17.3084619%" x2="121.351206%" y2="87.3954904%" id="linearGradient-1">
            <stop stop-color="#B6F2FF" offset="0%"></stop>
            <stop stop-color="#FFFFFF" offset="100%"></stop>
        </linearGradient>
        <linearGradient x1="77.500889%" y1="25.3632593%" x2="43.177023%" y2="75.6805556%" id="linearGradient-2">
            <stop stop-color="#B6F4FF" offset="0%"></stop>
            <stop stop-color="#C2DDFF" offset="100%"></stop>
        </linearGradient>
        <path d="M17.8636364,105.5 C7.99782242,105.5 0,97.4682165 0,87.5605096 C0,77.6528026 7.99782242,69.6210191 17.8636364,69.6210191 C19.9364758,69.6210191 21.9611979,69.9763341 23.8701195,70.6606947 C26.294115,65.7350353 31.3219376,62.5 36.9545455,62.5 C45.012882,62.5 51.5454545,69.0603117 51.5454545,77.1528662 C51.5454545,78.0267238 51.4691251,78.8909937 51.318806,79.7383706 C56.4549872,81.6226736 60,86.5638836 60,92.2165605 C60,99.2114158 54.599497,104.992939 47.6893731,105.468547 C47.5216573,105.489462 47.3522186,105.5 47.1817649,105.5 C42.6783335,105.5 47.0374612,105.5 44.8085028,105.5 C44.0553872,105.499548 17.9103219,105.5 17.8636364,105.5 Z" id="path-3"></path>
        <linearGradient x1="50%" y1="-91.1837765%" x2="50%" y2="100%" id="linearGradient-4">
            <stop stop-color="#FFF2F2" stop-opacity="0.139407835" offset="0%"></stop>
            <stop stop-color="#F9FBFE" offset="100%"></stop>
        </linearGradient>
        <path d="M24.0928227,73.8190624 C22.1885361,72.9677108 20.1194096,72.5218978 17.985,72.5218978 C9.70901302,72.5218978 3,79.2327246 3,87.5109489 C3,95.7891732 9.70901302,102.5 17.985,102.5 C18.0733281,102.5 18.1615598,102.499237 18.249689,102.497713 C18.3807107,102.497801 18.3807107,102.497801 18.4795237,102.497894 C18.6340754,102.498023 18.8832341,102.498142 19.2451761,102.498253 C20.0430313,102.498498 21.3986844,102.49871 23.4731102,102.498902 C25.0302114,102.499045 27.5527943,102.499178 32.023149,102.499371 C34.6237805,102.499483 35.9262633,102.499538 37.0124721,102.499588 C39.2191338,102.5 42.551661,102.5 47.01,102.5 C47.0732685,102.5 47.1355989,102.495738 47.1968438,102.487337 C52.7370046,102.122786 57,97.5889646 57,92.1021898 C57,87.3218189 53.7471559,83.1903543 49.1821756,82.026092 L47.8505818,81.6864794 L48.2137018,80.3607683 C48.4889831,79.3557467 48.63,78.3119737 48.63,77.2481752 C48.63,70.7598372 43.3715844,65.5 36.885,65.5 C31.9695348,65.5 27.6261458,68.548367 25.9052462,73.0669556 L25.3967858,74.4020266 L24.0928227,73.8190624 Z" id="path-5"></path>
        <linearGradient x1="76.5099479%" y1="2.03230574%" x2="43.4228758%" y2="100%" id="linearGradient-6">
            <stop stop-color="#B6F4FF" offset="0%"></stop>
            <stop stop-color="#C2DDFF" offset="100%"></stop>
        </linearGradient>
        <linearGradient x1="50%" y1="-30.9601329%" x2="50%" y2="127.882425%" id="linearGradient-7">
            <stop stop-color="#FFF2F2" stop-opacity="0.139407835" offset="0%"></stop>
            <stop stop-color="#FEFAF9" offset="100%"></stop>
        </linearGradient>
        <linearGradient x1="50%" y1="-91.1837765%" x2="50%" y2="100%" id="linearGradient-8">
            <stop stop-color="#FFF2F2" stop-opacity="0.139407835" offset="0%"></stop>
            <stop stop-color="#F9FBFE" offset="100%"></stop>
        </linearGradient>
    </defs>
    <g id="页面-1" stroke="none" stroke-width="1" fill="none" fill-rule="evenodd">
        <g id="正常" transform="translate(-109.000000, -290.000000)">
            <g id="cloud,-scurity" transform="translate(109.000000, 290.000000)">
                <path d="M23.4769231,15 L111.523077,15 C113.995613,15 116,17.0303366 116,19.5348837 L116,75.4651163 C116,77.9696634 113.995613,80 111.523077,80 L23.4769231,80 C21.0043867,80 19,77.9696634 19,75.4651163 L19,19.5348837 C19,17.0303366 21.0043867,15 23.4769231,15 Z" id="shape" fill="#FFFFFF"></path>
                <path d="M25.7545455,26 L46.8818182,26 C47.2985421,26 47.6363636,26.3331834 47.6363636,26.744186 L47.6363636,69.1627907 C47.6363636,69.5737933 47.2985421,69.9069767 46.8818182,69.9069767 L25.7545455,69.9069767 C25.3378215,69.9069767 25,69.5737933 25,69.1627907 L25,26.744186 C25,26.3331834 25.3378215,26 25.7545455,26 Z M52.1636364,26 L107.245455,26 C107.662178,26 108,26.3331834 108,26.744186 L108,31.9534884 C108,32.364491 107.662178,32.6976744 107.245455,32.6976744 L52.1636364,32.6976744 C51.7469124,32.6976744 51.4090909,32.364491 51.4090909,31.9534884 L51.4090909,26.744186 C51.4090909,26.3331834 51.7469124,26 52.1636364,26 Z M52.1636364,37.1627907 L107.245455,37.1627907 C107.662178,37.1627907 108,37.4959741 108,37.9069767 L108,74 L51.4090909,74 L51.4090909,37.9069767 C51.4090909,37.4959741 51.7469124,37.1627907 52.1636364,37.1627907 Z" id="Shape" fill="#C9E1FF" opacity="0.965587798"></path>
                <path d="M27.2173913,23 C25.9927599,23 25,22.1045695 25,21 C25,19.8954305 25.9927599,19 27.2173913,19 C28.4420227,19 29.4347826,19.8954305 29.4347826,21 C29.4347826,22.1045695 28.4420227,23 27.2173913,23 Z M33.5,23 C32.2753686,23 31.2826087,22.1045695 31.2826087,21 C31.2826087,19.8954305 32.2753686,19 33.5,19 C34.7246314,19 35.7173913,19.8954305 35.7173913,21 C35.7173913,22.1045695 34.7246314,23 33.5,23 Z M39.7826087,23 C38.5579773,23 37.5652174,22.1045695 37.5652174,21 C37.5652174,19.8954305 38.5579773,19 39.7826087,19 C41.0072401,19 42,19.8954305 42,21 C42,22.1045695 41.0072401,23 39.7826087,23 Z" id="Shape" fill="#C9E1FF" opacity="0.965587798"></path>
                <path d="M136.115819,69.9384512 C136.115819,69.522753 136.452238,69.185763 136.867232,69.185763 C137.282225,69.185763 137.618644,69.522753 137.618644,69.9384512 L137.618644,72.1965157 C137.618644,72.6122139 137.282225,72.9492039 136.867232,72.9492039 C136.452238,72.9492039 136.115819,72.6122139 136.115819,72.1965157 L136.115819,69.9384512 Z M136.115819,75.9599566 C136.115819,75.5442584 136.452238,75.2072684 136.867232,75.2072684 C137.282225,75.2072684 137.618644,75.5442584 137.618644,75.9599566 L137.618644,78.2180211 C137.618644,78.6337193 137.282225,78.9707093 136.867232,78.9707093 C136.452238,78.9707093 136.115819,78.6337193 136.115819,78.2180211 L136.115819,75.9599566 Z M136.115819,81.981462 C136.115819,81.5657638 136.452238,81.2287738 136.867232,81.2287738 C137.282225,81.2287738 137.618644,81.5657638 137.618644,81.981462 L137.618644,84.2395265 C137.618644,84.6552247 137.282225,84.9922147 136.867232,84.9922147 C136.452238,84.9922147 136.115819,84.6552247 136.115819,84.2395265 L136.115819,81.981462 Z M136.115819,88.0029673 C136.115819,87.5872691 136.452238,87.2502792 136.867232,87.2502792 C137.282225,87.2502792 137.618644,87.5872691 137.618644,88.0029673 L137.618644,90.2610319 C137.618644,90.6767301 137.282225,91.01372 136.867232,91.01372 C136.452238,91.01372 136.115819,90.6767301 136.115819,90.2610319 L136.115819,88.0029673 Z M136.115819,94.0244727 C136.115819,93.6087745 136.452238,93.2717845 136.867232,93.2717845 C137.282225,93.2717845 137.618644,93.6087745 137.618644,94.0244727 L137.618644,96.2825372 C137.618644,96.6982354 137.282225,97.0352254 136.867232,97.0352254 C136.452238,97.0352254 136.115819,96.6982354 136.115819,96.2825372 L136.115819,94.0244727 Z M136.115819,100.045978 C136.115819,99.6302799 136.452238,99.2932899 136.867232,99.2932899 C137.282225,99.2932899 137.618644,99.6302799 137.618644,100.045978 L137.618644,101.731183 C137.618644,101.953064 137.60569,102.173417 137.579996,102.391341 C137.531323,102.80417 137.157768,103.09931 136.745639,103.050554 C136.33351,103.001798 136.03887,102.62761 136.087543,102.214781 C136.106331,102.055434 136.115819,101.894036 136.115819,101.731183 L136.115819,100.045978 Z M134.544789,104.883596 C134.883217,104.643008 135.352271,104.722789 135.592451,105.061791 C135.832631,105.400794 135.752985,105.870644 135.414557,106.111232 C134.669772,106.640698 133.801403,106.948904 132.888893,106.994174 C132.474407,107.014737 132.121759,106.694829 132.101231,106.27964 C132.080703,105.864451 132.400069,105.511204 132.814555,105.490641 C133.43727,105.459748 134.030521,105.249188 134.544789,104.883596 Z M129.12185,105.494624 C129.536843,105.494624 129.873262,105.831614 129.873262,106.247312 C129.873262,106.66301 129.536843,107 129.12185,107 L126.867727,107 C126.452734,107 126.116315,106.66301 126.116315,106.247312 C126.116315,105.831614 126.452734,105.494624 126.867727,105.494624 L129.12185,105.494624 Z M123.110445,105.494624 C123.525439,105.494624 123.861858,105.831614 123.861858,106.247312 C123.861858,106.66301 123.525439,107 123.110445,107 L120.855924,107 C120.440931,107 120.104512,106.66301 120.104512,106.247312 C120.104512,105.831614 120.440931,105.494624 120.855924,105.494624 L123.110445,105.494624 Z M117.100004,105.494624 C117.514997,105.494624 117.851416,105.831614 117.851416,106.247312 C117.851416,106.66301 117.514997,107 117.100004,107 L114.846085,107 C114.431091,107 114.094672,106.66301 114.094672,106.247312 C114.094672,105.831614 114.431091,105.494624 114.846085,105.494624 L117.100004,105.494624 Z M111.089571,105.494624 C111.504565,105.494624 111.840984,105.831614 111.840984,106.247312 C111.840984,106.66301 111.504565,107 111.089571,107 L108.835451,107 C108.420457,107 108.084039,106.66301 108.084039,106.247312 C108.084039,105.831614 108.420457,105.494624 108.835451,105.494624 L111.089571,105.494624 Z M105.077388,105.494624 C105.492382,105.494624 105.8288,105.831614 105.8288,106.247312 C105.8288,106.66301 105.492382,107 105.077388,107 L102.823161,107 C102.408167,107 102.071748,106.66301 102.071748,106.247312 C102.071748,105.831614 102.408167,105.494624 102.823161,105.494624 L105.077388,105.494624 Z M99.066574,105.494624 C99.4815676,105.494624 99.8179864,105.831614 99.8179864,106.247312 C99.8179864,106.66301 99.4815676,107 99.066574,107 L97.5384982,107 C97.1235046,107 96.7870858,106.66301 96.7870858,106.247312 C96.7870858,105.831614 97.1235046,105.494624 97.5384982,105.494624 L99.066574,105.494624 Z M12.5413217,42.2688172 C12.5413217,42.6845154 12.2049029,43.0215054 11.7899093,43.0215054 C11.3749156,43.0215054 11.0384968,42.6845154 11.0384968,42.2688172 L11.0384968,40.0107527 C11.0384968,39.5950545 11.3749156,39.2580645 11.7899093,39.2580645 C12.2049029,39.2580645 12.5413217,39.5950545 12.5413217,40.0107527 L12.5413217,42.2688172 Z M12.5413217,36.2473118 C12.5413217,36.66301 12.2049029,37 11.7899093,37 C11.3749156,37 11.0384968,36.66301 11.0384968,36.2473118 L11.0384968,33.9892473 C11.0384968,33.5735491 11.3749156,33.2365591 11.7899093,33.2365591 C12.2049029,33.2365591 12.5413217,33.5735491 12.5413217,33.9892473 L12.5413217,36.2473118 Z M12.5413217,30.2258065 C12.5413217,30.6415047 12.2049029,30.9784946 11.7899093,30.9784946 C11.3749156,30.9784946 11.0384968,30.6415047 11.0384968,30.2258065 L11.0384968,27.9677419 C11.0384968,27.5520437 11.3749156,27.2150538 11.7899093,27.2150538 C12.2049029,27.2150538 12.5413217,27.5520437 12.5413217,27.9677419 L12.5413217,30.2258065 Z M12.5413217,24.2043011 C12.5413217,24.6199993 12.2049029,24.9569892 11.7899093,24.9569892 C11.3749156,24.9569892 11.0384968,24.6199993 11.0384968,24.2043011 L11.0384968,21.9462366 C11.0384968,21.5305384 11.3749156,21.1935484 11.7899093,21.1935484 C12.2049029,21.1935484 12.5413217,21.5305384 12.5413217,21.9462366 L12.5413217,24.2043011 Z M12.5413217,18.1827957 C12.5413217,18.5984939 12.2049029,18.9354839 11.7899093,18.9354839 C11.3749156,18.9354839 11.0384968,18.5984939 11.0384968,18.1827957 L11.0384968,15.9247312 C11.0384968,15.509033 11.3749156,15.172043 11.7899093,15.172043 C12.2049029,15.172043 12.5413217,15.509033 12.5413217,15.9247312 L12.5413217,18.1827957 Z M12.5413217,12.1612903 C12.5413217,12.5769885 12.2049029,12.9139785 11.7899093,12.9139785 C11.3749156,12.9139785 11.0384968,12.5769885 11.0384968,12.1612903 L11.0384968,10.4760856 C11.0384968,10.252151 11.0524861,10.0297591 11.0802287,9.80984389 C11.1322559,9.39742546 11.5081969,9.10534225 11.9199163,9.15745779 C12.3316357,9.20957333 12.6232238,9.58615252 12.5711966,9.99857096 C12.551346,10.1559268 12.5413217,10.3152858 12.5413217,10.4760856 L12.5413217,12.1612903 Z M14.1733263,7.37198152 C13.8313278,7.60744816 13.3635234,7.52061633 13.1284558,7.17803721 C12.8933883,6.83545808 12.980073,6.36685941 13.3220714,6.13139277 C14.0531121,5.62806983 14.9006064,5.3162962 15.7953272,5.23110528 C16.2084586,5.19176893 16.5752022,5.49535835 16.6144719,5.90919122 C16.6537416,6.32302409 16.3506667,6.69039032 15.9375353,6.72972667 C15.2990417,6.79052088 14.6952315,7.01264878 14.1733263,7.37198152 Z M19.6012878,6.71264476 C19.1862941,6.71264476 18.8498753,6.37565479 18.8498753,5.95995659 C18.8498753,5.54425839 19.1862941,5.20726842 19.6012878,5.20726842 L21.8555251,5.20726842 C22.2705187,5.20726842 22.6069375,5.54425839 22.6069375,5.95995659 C22.6069375,6.37565479 22.2705187,6.71264476 21.8555251,6.71264476 L19.6012878,6.71264476 Z M25.6125872,6.71264476 C25.1975936,6.71264476 24.8611748,6.37565479 24.8611748,5.95995659 C24.8611748,5.54425839 25.1975936,5.20726842 25.6125872,5.20726842 L27.8668245,5.20726842 C28.2818181,5.20726842 28.6182369,5.54425839 28.6182369,5.95995659 C28.6182369,6.37565479 28.2818181,6.71264476 27.8668245,6.71264476 L25.6125872,6.71264476 Z M31.6238866,6.71264476 C31.208893,6.71264476 30.8724742,6.37565479 30.8724742,5.95995659 C30.8724742,5.54425839 31.208893,5.20726842 31.6238866,5.20726842 L33.8781239,5.20726842 C34.2931175,5.20726842 34.6295364,5.54425839 34.6295364,5.95995659 C34.6295364,6.37565479 34.2931175,6.71264476 33.8781239,6.71264476 L31.6238866,6.71264476 Z M37.6351861,6.71264476 C37.2201924,6.71264476 36.8837736,6.37565479 36.8837736,5.95995659 C36.8837736,5.54425839 37.2201924,5.20726842 37.6351861,5.20726842 L39.8894234,5.20726842 C40.304417,5.20726842 40.6408358,5.54425839 40.6408358,5.95995659 C40.6408358,6.37565479 40.304417,6.71264476 39.8894234,6.71264476 L37.6351861,6.71264476 Z M43.6464855,6.71264476 C43.2314919,6.71264476 42.8950731,6.37565479 42.8950731,5.95995659 C42.8950731,5.54425839 43.2314919,5.20726842 43.6464855,5.20726842 L45.9007228,5.20726842 C46.3157164,5.20726842 46.6521352,5.54425839 46.6521352,5.95995659 C46.6521352,6.37565479 46.3157164,6.71264476 45.9007228,6.71264476 L43.6464855,6.71264476 Z M49.6577849,6.71264476 C49.2427913,6.71264476 48.9063725,6.37565479 48.9063725,5.95995659 C48.9063725,5.54425839 49.2427913,5.20726842 49.6577849,5.20726842 L51.9120222,5.20726842 C52.3270159,5.20726842 52.6634347,5.54425839 52.6634347,5.95995659 C52.6634347,6.37565479 52.3270159,6.71264476 51.9120222,6.71264476 L49.6577849,6.71264476 Z M55.6690844,6.71264476 C55.2540907,6.71264476 54.9176719,6.37565479 54.9176719,5.95995659 C54.9176719,5.54425839 55.2540907,5.20726842 55.6690844,5.20726842 L57.9233217,5.20726842 C58.3383153,5.20726842 58.6747341,5.54425839 58.6747341,5.95995659 C58.6747341,6.37565479 58.3383153,6.71264476 57.9233217,6.71264476 L55.6690844,6.71264476 Z M61.6803838,6.71264476 C61.2653902,6.71264476 60.9289714,6.37565479 60.9289714,5.95995659 C60.9289714,5.54425839 61.2653902,5.20726842 61.6803838,5.20726842 L63.9346211,5.20726842 C64.3496147,5.20726842 64.6860335,5.54425839 64.6860335,5.95995659 C64.6860335,6.37565479 64.3496147,6.71264476 63.9346211,6.71264476 L61.6803838,6.71264476 Z M67.6916832,6.71264476 C67.2766896,6.71264476 66.9402708,6.37565479 66.9402708,5.95995659 C66.9402708,5.54425839 67.2766896,5.20726842 67.6916832,5.20726842 L69.240113,5.20726842 C69.6551066,5.20726842 69.9915254,5.54425839 69.9915254,5.95995659 C69.9915254,6.37565479 69.6551066,6.71264476 69.240113,6.71264476 L67.6916832,6.71264476 Z M137.055085,65.9784946 C136.121349,65.9784946 135.364407,65.2202672 135.364407,64.2849462 C135.364407,63.3496253 136.121349,62.5913978 137.055085,62.5913978 C137.98882,62.5913978 138.745763,63.3496253 138.745763,64.2849462 C138.745763,65.2202672 137.98882,65.9784946 137.055085,65.9784946 Z M137.055085,67.1075269 C138.611311,67.1075269 139.872881,65.8438145 139.872881,64.2849462 C139.872881,62.726078 138.611311,61.4623656 137.055085,61.4623656 C135.498859,61.4623656 134.237288,62.726078 134.237288,64.2849462 C134.237288,65.8438145 135.498859,67.1075269 137.055085,67.1075269 Z M137.055085,68.2365591 C134.876368,68.2365591 133.110169,66.4673618 133.110169,64.2849462 C133.110169,62.1025307 134.876368,60.3333333 137.055085,60.3333333 C139.233801,60.3333333 141,62.1025307 141,64.2849462 C141,66.4673618 139.233801,68.2365591 137.055085,68.2365591 Z M73.9364407,7.64516129 C73.002705,7.64516129 72.2457627,6.88693385 72.2457627,5.9516129 C72.2457627,5.01629196 73.002705,4.25806452 73.9364407,4.25806452 C74.8701763,4.25806452 75.6271186,5.01629196 75.6271186,5.9516129 C75.6271186,6.88693385 74.8701763,7.64516129 73.9364407,7.64516129 Z M73.9364407,8.77419355 C75.4926668,8.77419355 76.7542373,7.51048115 76.7542373,5.9516129 C76.7542373,4.39274466 75.4926668,3.12903226 73.9364407,3.12903226 C72.3802146,3.12903226 71.1186441,4.39274466 71.1186441,5.9516129 C71.1186441,7.51048115 72.3802146,8.77419355 73.9364407,8.77419355 Z M73.9364407,9.90322581 C71.7577241,9.90322581 69.9915254,8.13402845 69.9915254,5.9516129 C69.9915254,3.76919736 71.7577241,2 73.9364407,2 C76.1151572,2 77.8813559,3.76919736 77.8813559,5.9516129 C77.8813559,8.13402845 76.1151572,9.90322581 73.9364407,9.90322581 Z M11.9449153,49.7956989 C11.0111796,49.7956989 10.2542373,49.0374715 10.2542373,48.1021505 C10.2542373,47.1668296 11.0111796,46.4086022 11.9449153,46.4086022 C12.8786509,46.4086022 13.6355932,47.1668296 13.6355932,48.1021505 C13.6355932,49.0374715 12.8786509,49.7956989 11.9449153,49.7956989 Z M11.9449153,50.9247312 C13.5011414,50.9247312 14.7627119,49.6610188 14.7627119,48.1021505 C14.7627119,46.5432823 13.5011414,45.2795699 11.9449153,45.2795699 C10.3886892,45.2795699 9.12711864,46.5432823 9.12711864,48.1021505 C9.12711864,49.6610188 10.3886892,50.9247312 11.9449153,50.9247312 Z M11.9449153,52.0537634 C9.76619872,52.0537634 8,50.2845661 8,48.1021505 C8,45.919735 9.76619872,44.1505376 11.9449153,44.1505376 C14.1236318,44.1505376 15.8898305,45.919735 15.8898305,48.1021505 C15.8898305,50.2845661 14.1236318,52.0537634 11.9449153,52.0537634 Z" id="Shape" fill="#D4DFFF" fill-rule="nonzero"></path>
                <path d="M36.4769231,34 L124.523077,34 C126.995613,34 129,36.0303366 129,38.5348837 L129,94.4651163 C129,96.9696634 126.995613,99 124.523077,99 L36.4769231,99 C34.0043867,99 32,96.9696634 32,94.4651163 L32,38.5348837 C32,36.0303366 34.0043867,34 36.4769231,34 Z" id="shape" fill="#FFFFFF"></path>
                <path d="M40.7545455,45.5 L61.8818182,45.5 C62.2985421,45.5 62.6363636,45.8331834 62.6363636,46.244186 L62.6363636,51.4534884 C62.6363636,51.864491 62.2985421,52.1976744 61.8818182,52.1976744 L40.7545455,52.1976744 C40.3378215,52.1976744 40,51.864491 40,51.4534884 L40,46.244186 C40,45.8331834 40.3378215,45.5 40.7545455,45.5 Z M40.7545455,55.9186047 L61.8818182,55.9186047 C62.2985421,55.9186047 62.6363636,56.2517881 62.6363636,56.6627907 L62.6363636,61.872093 C62.6363636,62.2830956 62.2985421,62.6162791 61.8818182,62.6162791 L40.7545455,62.6162791 C40.3378215,62.6162791 40,62.2830956 40,61.872093 L40,56.6627907 C40,56.2517881 40.3378215,55.9186047 40.7545455,55.9186047 Z M40.7545455,66.3372093 L61.8818182,66.3372093 C62.2985421,66.3372093 62.6363636,66.6703927 62.6363636,67.0813953 L62.6363636,72.2906977 C62.6363636,72.7017003 62.2985421,73.0348837 61.8818182,73.0348837 L40.7545455,73.0348837 C40.3378215,73.0348837 40,72.7017003 40,72.2906977 L40,67.0813953 C40,66.6703927 40.3378215,66.3372093 40.7545455,66.3372093 Z M67.1636364,45.5 L122.245455,45.5 C122.662178,45.5 123,45.8331834 123,46.244186 L123,51.4534884 C123,51.864491 122.662178,52.1976744 122.245455,52.1976744 L67.1636364,52.1976744 C66.7469124,52.1976744 66.4090909,51.864491 66.4090909,51.4534884 L66.4090909,46.244186 C66.4090909,45.8331834 66.7469124,45.5 67.1636364,45.5 Z M67.1636364,56.6627907 L122.245455,56.6627907 C122.662178,56.6627907 123,56.9959741 123,57.4069767 L123,93.5 L66.4090909,93.5 L66.4090909,57.4069767 C66.4090909,56.9959741 66.7469124,56.6627907 67.1636364,56.6627907 Z" id="Shape" fill="#C7E0FF" opacity="0.965587798"></path>
                <path d="M42.2173913,42 C40.9927599,42 40,41.1045695 40,40 C40,38.8954305 40.9927599,38 42.2173913,38 C43.4420227,38 44.4347826,38.8954305 44.4347826,40 C44.4347826,41.1045695 43.4420227,42 42.2173913,42 Z M48.5,42 C47.2753686,42 46.2826087,41.1045695 46.2826087,40 C46.2826087,38.8954305 47.2753686,38 48.5,38 C49.7246314,38 50.7173913,38.8954305 50.7173913,40 C50.7173913,41.1045695 49.7246314,42 48.5,42 Z M54.7826087,42 C53.5579773,42 52.5652174,41.1045695 52.5652174,40 C52.5652174,38.8954305 53.5579773,38 54.7826087,38 C56.0072401,38 57,38.8954305 57,40 C57,41.1045695 56.0072401,42 54.7826087,42 Z" id="Shape" fill="#C9E1FF" opacity="0.965587798"></path>
                <path d="M133.789474,49 L139.315789,49 C139.751804,49 140.105263,49.2925181 140.105263,49.6533575 L140.105263,50.0798548 C140.105263,50.4406942 139.751804,50.7332123 139.315789,50.7332123 L133.789474,50.7332123 C133.353459,50.7332123 133,50.4406942 133,50.0798548 L133,49.6533575 C133,49.2925181 133.353459,49 133.789474,49 Z M133.789474,52.2667877 L147.210526,52.2667877 C147.646541,52.2667877 148,52.5593058 148,52.9201452 L148,53.3466425 C148,53.7074819 147.646541,54 147.210526,54 L133.789474,54 C133.353459,54 133,53.7074819 133,53.3466425 L133,52.9201452 C133,52.5593058 133.353459,52.2667877 133.789474,52.2667877 Z" id="Shape" fill="#FFFFFF"></path>
                <g id="Path">
                    <use fill="url(#linearGradient-1)" xlink:href="#path-3"></use>
                    <use fill="url(#linearGradient-2)" xlink:href="#path-3"></use>
                </g>
                <g id="shape" opacity="0.965587798">
                    <use fill="#B7D4FF" xlink:href="#path-5"></use>
                    <use fill="url(#linearGradient-4)" xlink:href="#path-5"></use>
                </g>
                <path d="M150,7.95605523 C150,30.0002482 133.237983,55 123,55 C112.762017,55 96,27.5 96,7.95605523 C102.672609,7.95605523 114.638161,-0.170976443 123,0.00274593452 C131.361839,0.176468312 143.327391,7.95605523 150,7.95605523 Z" id="shape" fill="url(#linearGradient-6)"></path>
                <path d="M101,11.9316213 C106.43694,11.9316213 116.18665,6.12956309 123,6 C123,16.6884183 123,43.0015132 123,49 C116.572587,49 101,28.3723003 101,11.9316213 Z" id="shape" fill="url(#linearGradient-7)" opacity="0.965587798"></path>
                <path d="M145,11.9316213 C145,28.3723003 129.427413,49 123,49 C123,43.0015132 123,16.6884183 123,6 C129.81335,6.12956309 139.56306,11.9316213 145,11.9316213 Z" id="shape" fill="url(#linearGradient-8)" opacity="0.965587798"></path>
                <path d="M122.5,17 C123.328427,17 124,17.6715729 124,18.5 L124,23 L128.5,23 C129.328427,23 130,23.6715729 130,24.5 C130,25.3284271 129.328427,26 128.5,26 L124,26 L124,30.5 C124,31.3284271 123.328427,32 122.5,32 C121.671573,32 121,31.3284271 121,30.5 L120.999,26 L116.5,26 C115.671573,26 115,25.3284271 115,24.5 C115,23.6715729 115.671573,23 116.5,23 L121,23 L121,18.5 C121,17.6715729 121.671573,17 122.5,17 Z" id="形状结合" fill="#FFFFFF"></path>
            </g>
        </g>
    </g>
</svg>