<?xml version="1.0" encoding="UTF-8"?>
<svg width="46px" height="46px" viewBox="0 0 46 46" version="1.1" xmlns="http://www.w3.org/2000/svg" xmlns:xlink="http://www.w3.org/1999/xlink">
    <!-- Generator: Sketch 63.1 (92452) - https://sketch.com -->
    <title>子女</title>
    <desc>Created with Sketch.</desc>
    <g id="页面-1" stroke="none" stroke-width="1" fill="none" fill-rule="evenodd">
        <g id="正常备份-7" transform="translate(-27.000000, -108.000000)">
            <g id="子女" transform="translate(27.000000, 108.000000)">
                <path d="M0.0002,23.0011 C0.0002,35.7051 10.2982,46.0021 23.0012,46.0021 C35.7052,46.0021 46.0022,35.7051 46.0022,23.0011 C46.0022,10.2981 35.7052,0.0001 23.0012,0.0001 C10.2982,0.0001 0.0002,10.2981 0.0002,23.0011" id="Fill-1" fill="#F5F9FD"></path>
                <g id="编组" transform="translate(15.000000, 15.000000)" fill="#F8C884">
                    <path d="M4.3149,4.2825 C5.4979,4.2825 6.4559,3.3245 6.4559,2.1405 C6.4559,0.9595 5.4979,0.0005 4.3149,0.0005 C3.1319,0.0005 2.1729,0.9595 2.1729,2.1405 C2.1729,3.3245 3.1319,4.2825 4.3149,4.2825" id="Fill-1"></path>
                    <path d="M8.5693,10.0628 L6.8703,5.7668 C6.7003,5.3358 6.1883,4.9108 5.7343,4.8218 L5.1413,4.7058 C4.6873,4.6168 3.9413,4.6108 3.4863,4.6928 L2.8983,4.7978 C2.4423,4.8798 1.9293,5.2998 1.7593,5.7308 L0.0603,10.0268 C-0.1097,10.4578 0.0933,10.9048 0.5123,11.0208 C0.9313,11.1368 1.4023,10.8748 1.5593,10.4388 L2.4353,8.0068 C2.5913,7.5708 2.6993,7.5928 2.6733,8.0548 L2.5723,9.8658 C2.5473,10.3288 2.5073,11.0848 2.4853,11.5478 L2.2873,15.5658 C2.2643,16.0288 2.6243,16.4068 3.0883,16.4068 L3.2563,16.4068 C3.7193,16.4068 4.1093,16.0278 4.1223,15.5648 L4.2153,12.2508 C4.2283,11.7878 4.2733,11.4088 4.3153,11.4088 C4.3563,11.4088 4.4013,11.7878 4.4143,12.2508 L4.5073,15.5648 C4.5203,16.0278 4.9093,16.4068 5.3733,16.4068 L5.5423,16.4068 C6.0053,16.4068 6.3653,16.0288 6.3423,15.5658 L6.1453,11.5478 C6.1223,11.0848 6.0823,10.3288 6.0563,9.8658 L5.9553,8.0848 C5.9293,7.6238 6.0363,7.6008 6.1933,8.0378 L7.0693,10.4758 C7.2273,10.9118 7.6983,11.1728 8.1173,11.0568 C8.5363,10.9408 8.7393,10.4938 8.5693,10.0628" id="Fill-3"></path>
                    <path d="M12.1387,4.2825 C13.3217,4.2825 14.2797,3.3245 14.2797,2.1405 C14.2797,0.9595 13.3217,0.0005 12.1387,0.0005 C10.9557,0.0005 9.9967,0.9595 9.9967,2.1405 C9.9967,3.3245 10.9557,4.2825 12.1387,4.2825" id="Fill-5"></path>
                    <path d="M16.4238,10.0628 L14.7248,5.7668 C14.5548,5.3358 14.0428,4.9108 13.5888,4.8218 L12.9958,4.7058 C12.5408,4.6168 11.7958,4.6108 11.3408,4.6928 L10.7528,4.7978 C10.2968,4.8798 9.7838,5.2998 9.6138,5.7308 L7.9148,10.0268 C7.7438,10.4578 7.9478,10.9048 8.3668,11.0208 C8.7858,11.1368 9.2568,10.8748 9.4138,10.4388 L10.2898,8.0068 C10.4328,7.6078 10.5348,7.5928 10.5308,7.9488 L8.9758,12.5958 L10.2878,12.5958 L10.1408,15.5658 C10.1188,16.0288 10.4788,16.4068 10.9428,16.4068 L11.1108,16.4068 C11.5738,16.4068 11.9638,16.0278 11.9768,15.5648 L12.0608,12.5958 L12.2778,12.5958 L12.3618,15.5648 C12.3748,16.0278 12.7638,16.4068 13.2278,16.4068 L13.3958,16.4068 C13.8598,16.4068 14.2198,16.0288 14.1968,15.5658 L14.0508,12.5958 L15.3628,12.5958 L13.8058,7.9538 C13.8078,7.6248 13.9078,7.6478 14.0478,8.0378 L14.9238,10.4758 C15.0808,10.9118 15.5518,11.1728 15.9718,11.0568 C16.3908,10.9408 16.5938,10.4938 16.4238,10.0628" id="Fill-7"></path>
                </g>
            </g>
        </g>
    </g>
</svg>