<?xml version="1.0" standalone="no"?><!DOCTYPE svg PUBLIC "-//W3C//DTD SVG 1.1//EN" "http://www.w3.org/Graphics/SVG/1.1/DTD/svg11.dtd"><svg t="1587613067520" class="icon" viewBox="0 0 1044 1024" version="1.1" xmlns="http://www.w3.org/2000/svg" p-id="3569" xmlns:xlink="http://www.w3.org/1999/xlink" width="203.90625" height="200"><defs><style type="text/css"></style></defs><path d="M1011.004509 944.441645h-90.531625V424.25967c-1.024-49.61459-40.919899-88.487922-91.042909-88.487922H670.354797c-50.125874 0-97.692464 38.362048-97.692464 88.487922v520.181975h-540.643357C20.25515 944.441645 10.025175 955.181471 10.025175 967.459446c0 12.27511 9.718691 23.016369 21.993801 23.016369h979.499681c11.762394 0 21.993801-10.741259 21.993802-23.016369 0.001432-12.277975-10.231407-23.017801-22.50795-23.017801z m-218.405594-395.380006c0 12.276543-9.717259 21.992369-21.990937 21.992369h-43.476319c-12.273678 0-21.993801-9.717259-21.993802-21.992369v-63.423552c0-12.277975 9.720123-21.993801 21.993802-21.993802h43.476319c12.276543 0 21.990937 9.717259 21.990937 21.993802v63.423552z m0 199.479497c0 12.27511-9.717259 21.992369-21.990937 21.992369h-43.476319c-12.273678 0-21.993801-9.718691-21.993802-21.992369V684.604867c0-12.27511 9.720123-21.992369 21.993802-21.992369h43.476319c12.276543 0 21.990937 9.718691 21.990937 21.992369v63.936269z" fill="#469BF1" p-id="3570"></path><path d="M575.728604 28.881097H227.406769C167.563636 28.881097 117.437762 70.310848 117.437762 130.15398v773.369198h414.303239V683.582299h-41.428318c-14.320246 0-25.061505-11.25111-25.061505-25.572789v-56.264145c0-14.321678 10.741259-25.574221 25.061505-25.574221h41.428318V424.25967c0-74.166243 64.447552-134.522092 138.615228-134.522092h9.717259V130.15398c-0.001432-59.844565-43.989035-101.272884-104.344884-101.272883zM332.261505 462.107569c0 12.276543-9.717259 21.993801-21.993802 21.993802h-43.476318c-12.27511 0-21.993801-9.718691-21.993802-21.993802v-63.423552c0-12.276543 9.720123-21.993801 21.993802-21.993802h43.476318c12.276543 0 21.993801 9.717259 21.993802 21.993802v63.423552z m0-194.363793c0 12.276543-9.717259 21.993801-21.993802 21.993802h-43.476318c-12.27511 0-21.993801-9.718691-21.993802-21.993802v-63.424984c0-12.276543 9.720123-21.993801 21.993802-21.993802h43.476318c12.276543 0 21.993801 9.718691 21.993802 21.993802v63.424984z m219.939446 0c0 12.276543-9.717259 21.993801-21.993801 21.993802h-43.474887c-12.276543 0-21.993801-9.718691-21.993801-21.993802v-63.424984c0-12.276543 9.718691-21.993801 21.993801-21.993802h43.474887c12.276543 0 21.993801 9.718691 21.993801 21.993802v63.424984z" fill="#469BF1" p-id="3571"></path></svg>