<?xml version="1.0" encoding="UTF-8"?>
<svg width="20px" height="20px" viewBox="0 0 20 20" version="1.1" xmlns="http://www.w3.org/2000/svg" xmlns:xlink="http://www.w3.org/1999/xlink">
    <!-- Generator: Sketch 63.1 (92452) - https://sketch.com -->
    <title>编组 3备份</title>
    <desc>Created with Sketch.</desc>
    <g id="页面-1" stroke="none" stroke-width="1" fill="none" fill-rule="evenodd">
        <g id="正常备份-7" transform="translate(-318.000000, -189.000000)">
            <g id="编组-3备份" transform="translate(318.000000, 189.000000)">
                <path d="M9.99995116,5 C10.5522454,5 10.9999267,5.44768793 11,5.99989255 L11,5.99989255 L11,9 L14.0001319,9 C14.5128933,9.00006803 14.9355147,9.38608387 14.9932731,9.8834263 L15,10.0000488 C15,10.5522454 14.5523365,10.9999023 14.0001319,11 L14.0001319,11 L10.999,11 L11,14.0001319 C10.999932,14.5128933 10.6139161,14.9355147 10.1165737,14.9932731 L9.99995116,15 C9.44775463,15 9.00009768,14.5523365 9,14.0001319 L9,14.0001319 L8.999,11 L5.99989255,11 C5.48713112,10.9999093 5.06448867,10.6139129 5.0067273,10.1166516 L5,10.0000488 C5,9.44775463 5.44768793,9.00007326 5.99989255,9 L5.99989255,9 L9,9 L9,5.99989255 C9.0000907,5.48713112 9.38608711,5.06448867 9.88334844,5.0067273 Z" id="形状结合" fill="#94959B" transform="translate(10.000000, 10.000000) rotate(-315.000000) translate(-10.000000, -10.000000) "></path>
                <circle id="椭圆形" stroke="#94959B" stroke-width="2" cx="10" cy="10" r="9"></circle>
            </g>
        </g>
    </g>
</svg>