<?xml version="1.0" standalone="no"?><!DOCTYPE svg PUBLIC "-//W3C//DTD SVG 1.1//EN" "http://www.w3.org/Graphics/SVG/1.1/DTD/svg11.dtd"><svg t="1588043845273" class="icon" viewBox="0 0 1024 1024" version="1.1" xmlns="http://www.w3.org/2000/svg" p-id="7406" xmlns:xlink="http://www.w3.org/1999/xlink" width="200" height="200"><defs><style type="text/css"></style></defs><path d="M317.558154 527.517538c0.078769-0.315077 0.078769-0.512 0.196923-0.787692 4.332308-19.495385-4.529231-39.660308-21.070769-51.160615a134.537846 134.537846 0 0 1-58.525539-110.828308c0-53.838769 31.940923-100.430769 78.060308-122.013538a23.315692 23.315692 0 0 0 10.948923-10.515693l2.126769-4.096c9.058462-17.408-8.743385-37.218462-26.860307-29.459692-64.866462 27.648-110.395077 91.608615-110.395077 166.006154a179.2 179.2 0 0 0 56.595692 130.717538 21.149538 21.149538 0 0 1-4.923077 34.619077c-91.451077 44.740923-156.593231 134.813538-164.864 240.64a21.464615 21.464615 0 0 0 21.464615 23.079385h2.678154a21.464615 21.464615 0 0 0 21.858462-19.613539c7.68-97.713231 72.782769-179.593846 161.634461-212.676923 15.202462-5.632 27.411692-18.116923 31.074462-33.910154z m627.593846 243.160616c-8.270769-105.865846-73.334154-195.938462-164.864-240.600616a21.188923 21.188923 0 0 1-4.923077-34.619076 179.396923 179.396923 0 0 0 56.595692-130.717539c0-74.397538-45.528615-138.358154-110.395077-166.006154-18.195692-7.719385-35.997538 12.051692-26.860307 29.459693l2.126769 4.135384a24.260923 24.260923 0 0 0 10.948923 10.515692 135.089231 135.089231 0 0 1 78.060308 122.013539 134.537846 134.537846 0 0 1-58.525539 110.828308c-16.541538 11.460923-25.481846 31.625846-21.070769 51.160615 0.118154 0.275692 0.118154 0.472615 0.196923 0.748308 3.662769 15.753846 15.872 28.317538 31.113846 34.028307 88.812308 33.083077 153.915077 114.963692 161.595077 212.676923a21.425231 21.425231 0 0 0 21.858462 19.613539h2.678154a21.661538 21.661538 0 0 0 21.464615-23.236923z" fill="#54BCE2" p-id="7407"></path><path d="M612.036923 540.553846a187.392 187.392 0 0 0 84.361846-156.790154C696.398769 280.694154 613.691077 196.923077 512 196.923077c-101.612308 0-184.32 83.771077-184.32 186.840615 0 65.614769 33.634462 123.431385 84.361846 156.790154C295.660308 582.419692 212.086154 695.020308 212.086154 827.076923h599.827692c-0.078769-132.056615-83.574154-244.657231-199.876923-286.523077z" fill="#54BCE2" p-id="7408"></path></svg>