<?xml version="1.0" encoding="UTF-8"?>
<svg width="18px" height="18px" viewBox="0 0 18 18" version="1.1" xmlns="http://www.w3.org/2000/svg" xmlns:xlink="http://www.w3.org/1999/xlink">
    <!-- Generator: Sketch 63.1 (92452) - https://sketch.com -->
    <title>打卡</title>
    <desc>Created with Sketch.</desc>
    <g id="页面-1" stroke="none" stroke-width="1" fill="none" fill-rule="evenodd">
        <g id="正常备份-5" transform="translate(-135.000000, -658.000000)" fill="#4392F4">
            <g id="编组-3" transform="translate(135.000000, 657.000000)">
                <g id="打卡" transform="translate(0.000000, 1.000000)">
                    <path d="M15.7819,15.3844 C15.7819,15.6014 15.6029,15.7804 15.3859,15.7804 L1.9769,15.7804 C1.7599,15.7804 1.5809,15.6014 1.5809,15.3844 L1.5809,3.5514 C1.5809,3.3354 1.7599,3.1564 1.9769,3.1564 L3.9459,3.1564 L3.9459,3.9454 C3.9459,4.3794 4.2999,4.7344 4.7339,4.7344 C5.1679,4.7344 5.5229,4.3794 5.5229,3.9454 L5.5229,3.1564 L11.8349,3.1564 L11.8349,3.9454 C11.8349,4.3794 12.1889,4.7344 12.6229,4.7344 C13.0569,4.7344 13.4119,4.3794 13.4119,3.9454 L13.4119,3.1564 L15.3829,3.1564 C15.5989,3.1564 15.7779,3.3354 15.7779,3.5514 L15.7779,15.3844 L15.7819,15.3844 Z M15.7799,1.5774 L13.4139,1.5774 L13.4139,0.7884 C13.4139,0.3544 13.0589,0.0004 12.6249,0.0004 C12.1909,0.0004 11.8369,0.3544 11.8369,0.7884 L11.8369,1.5774 L5.5229,1.5774 L5.5229,0.7884 C5.5229,0.3544 5.1679,0.0004 4.7339,0.0004 C4.2999,0.0004 3.9459,0.3544 3.9459,0.7884 L3.9459,1.5774 L1.5789,1.5774 C0.7109,1.5774 -0.0001,2.2884 -0.0001,3.1564 L-0.0001,15.7804 C-0.0001,16.6484 0.7109,17.3594 1.5789,17.3594 L15.7799,17.3594 C16.6479,17.3594 17.3589,16.6484 17.3589,15.7804 L17.3589,3.1564 C17.3589,2.2884 16.6479,1.5774 15.7799,1.5774 L15.7799,1.5774 Z" id="Fill-1"></path>
                    <path d="M12.3151,7.0885 L7.9371,10.7665 L5.2921,8.1215 C4.9841,7.8135 4.4841,7.8135 4.1761,8.1215 C3.8681,8.4295 3.8681,8.9295 4.1761,9.2375 L7.3331,12.3945 C7.4861,12.5475 7.6871,12.6245 7.8911,12.6245 C8.0711,12.6245 8.2511,12.5635 8.3981,12.4415 L13.3311,8.2975 C13.6641,8.0165 13.7091,7.5205 13.4271,7.1855 C13.1461,6.8525 12.6481,6.8095 12.3151,7.0885" id="Fill-3"></path>
                </g>
            </g>
        </g>
    </g>
</svg>