<?xml version="1.0" standalone="no"?><!DOCTYPE svg PUBLIC "-//W3C//DTD SVG 1.1//EN" "http://www.w3.org/Graphics/SVG/1.1/DTD/svg11.dtd"><svg t="1588166802701" class="icon" viewBox="0 0 1609 1024" version="1.1" xmlns="http://www.w3.org/2000/svg" p-id="3354" xmlns:xlink="http://www.w3.org/1999/xlink" width="314.2578125" height="200"><defs><style type="text/css"></style></defs><path d="M89.793086 29.767442h80.838718V10.668008H70.693652v99.938152h19.099434V29.767442z m0 962.188309h80.838718v19.099434H70.693652v-99.954242h19.099434v80.854808zM1515.589189 29.767442h-80.830672V10.668008h99.938152v99.938152h-19.099435L1515.589189 29.767442z m0 962.188309h-80.830672v19.099434h99.938152v-99.954242h-19.099435l-0.008045 80.854808z" fill="#E22C38" p-id="3355"></path><path d="M266.27379 217.310371h93.147957V265.4934H266.27379v-48.183029z m0 119.914519h93.147957v48.18303H266.27379v-48.18303z m0 119.914519h93.147957v48.18303H266.27379v-48.18303z" fill="#FFD9DD" p-id="3356"></path><path d="M1275.961282 379.341798c1.480327 0.836706 2.952608 1.74582 4.42489 2.751477l4.42489 2.992834 0.088498 5.317914c0.249403 15.390572-1.601006 28.439975-5.647769 38.448271-3.724953 9.187681-9.203771 16.042238-16.581269 20.193589-5.020239 17.932872-10.893275 34.522187-19.27643 48.464614-9.589943 16.050283-22.27731 28.415839-40.226273 35.053174-8.005028 2.936518-28.488246 4.288121-48.19912 3.998491-19.010937-0.273539-38.09428-2.156128-45.664865-5.655814-16.299686-7.498177-27.756128-20.129227-36.428913-35.833564-7.433815-13.42753-12.735638-29.059459-17.369704-45.560276-7.642992-3.974356-13.363168-10.804777-17.216845-20.05682-4.223759-10.10484-6.130484-23.363419-5.881081-39.059711l0.064362-5.334003 4.440981-2.976745c1.1022-0.764299 2.228536-1.480327 3.387052-2.140037-5.004148-61.682967-3.105468-84.499309 19.791326-110.557888 44.675299-36.589818 147.083344-35.310622 192.337901-2.148083 30.869642 29.123821 33.009679 61.739283 23.532369 112.102577z m-93.823758 178.411565l0.65971 14.143557-8.350974 13.821748 11.649529 76.655185 47.853174-102.802263 72.825644-2.485983c37.611565 35.576116 61.739283 119.407668 55.809931 174.083218h-405.9555c1.005657-47.997989 9.839346-130.019359 57.644249-171.717914l65.802137 0.603394 61.61056 101.692018 11.593211-76.01961-8.383155-13.821748 0.651666-14.143557c15.961785-0.884978 20.644123-0.884978 36.589818-0.008045z m54.52269-200.310748c-28.954871 5.663859-72.045255 10.611691-106.084727-8.536015-13.113765-7.385544-32.293652 7.73149-47.981898 6.1868a116.978001 116.978001 0 0 0-10.603646 31.336267l-1.76191 9.260088-9.30836-0.909114a13.290761 13.290761 0 0 0-5.414456 0.667756 19.92005 19.92005 0 0 0-2.51012 1.005657c0.225267 10.249654 1.673413 18.761534 4.328347 25.12533 2.333124 5.599497 5.583407 9.243997 9.839347 10.571465l5.438592 1.697548 1.488372 5.462728c4.585795 16.91917 9.686486 32.85682 16.870899 45.841861 6.669516 12.059837 15.197486 21.641735 26.999874 27.072281 4.963922 2.276807 20.764802 3.564048 37.2978 3.805406 17.562791 0.273539 35.0934-0.667756 40.885984-2.791704 13.025267-4.835198 22.397989-14.119422 29.662853-26.283846 7.811942-13.097674 13.395349-29.70308 18.286864-47.909491l1.383784-5.20528 5.173098-1.810182c4.095035-1.456191 7.27291-5.173099 9.557763-10.836958 2.5423-6.315525 3.95022-14.690635 4.191577-24.747203a19.067253 19.067253 0 0 0-2.268761-0.909114 14.199874 14.199874 0 0 0-5.277687-0.79648l-9.075048 0.587303-1.665367-8.930232a119.190446 119.190446 0 0 0-9.453174-28.954871zM393.694532 217.310371h280.521936V265.4934H393.694532v-48.183029z m0 119.914519h280.521936v48.18303H393.694532v-48.18303z m0 119.914519h280.521936v48.18303H393.694532v-48.18303z m148.813073 313.724702h421.860968v48.19912H542.507605v-48.19912z" fill="#E2E2E2" p-id="3357"></path><path d="M266.27379 770.864111h247.327216v48.19912H266.27379v-48.19912z" fill="#FFD9DD" p-id="3358"></path><path d="M985.254054 721.200754H593.474293c-44.152357 0.008045-79.945695-35.785292-79.961785-79.929604V424.234318a79.95374 79.95374 0 0 1 48.963419-73.718667 7.128096 7.128096 0 0 1-1.673413-4.682339s9.847392-25.117285 14.457323-25.117284h52.978001c4.111125 0 15.125079 18.117913 18.351225 23.56455h32.446512s32.181018-62.825393 47.298052-62.825393h173.383281c15.833061 0 39.397612 62.825393 39.397611 62.825393h46.14758c44.152357 0.008045 79.945695 35.801383 79.945695 79.961785v217.012697c-0.008045 44.152357-35.801383 79.945695-79.95374 79.945694m-385.045883-298.398491a31.456945 31.456945 0 0 0 31.529353-31.392584v-0.01609a31.456945 31.456945 0 0 0-31.521308-31.400629h-0.008045a31.456945 31.456945 0 0 0-31.521307 31.400629 31.456945 31.456945 0 0 0 31.521307 31.408674c-0.008045 0 0 0 0 0m212.805028-54.973225c-82.705217 0-149.746323 66.791703-149.746323 149.207291 0 82.399497 67.041106 149.207291 149.746323 149.207291 82.689126 0 149.738278-66.807794 149.738278-149.207291s-67.041106-149.207291-149.738278-149.207291m0 251.285481c-56.598366 0-102.464362-45.705091-102.464362-102.086235 0-56.373099 45.874041-102.086235 102.464362-102.086235 56.57423 0 102.448272 45.705091 102.448272 102.086235s-45.882087 102.086235-102.448272 102.086235" fill="#E22C38" p-id="3359"></path></svg>