<?xml version="1.0" standalone="no"?><!DOCTYPE svg PUBLIC "-//W3C//DTD SVG 1.1//EN" "http://www.w3.org/Graphics/SVG/1.1/DTD/svg11.dtd"><svg t="1585362262981" class="icon" viewBox="0 0 1024 1024" version="1.1" xmlns="http://www.w3.org/2000/svg" p-id="5657" xmlns:xlink="http://www.w3.org/1999/xlink" width="200" height="200"><defs><style type="text/css"></style></defs><path d="M511.2 200c-37.6 0-67.2 31.6-65.2 68.8l20 354.8c1.2 23.6 21.2 42.4 44.8 42.4 24 0 43.6-18.4 44.8-42.4l20-354.8c2.8-37.2-27.2-68.8-64.4-68.8z" fill="#FFFFFF" p-id="5658"></path><path d="M19.2 511.6c0 137.2 45.6 250.4 144 348.8S374.8 1004 511.6 1004s250-45.2 348.4-143.6c98.4-98.4 144-211.6 144-348.8 0-136.8-45.6-250-144-348.4C761.2 65.2 648 20 511.2 20s-250 45.2-348 143.6c-98.4 98-144 211.2-144 348z m0 0" fill="#FF0000" p-id="5659"></path><path d="M262 688.8c0-19.6 8.8-38 25.6-54.8l122.4-122.4-122.4-121.6c-16.8-16.8-25.6-35.2-25.6-54.8v-3.6c0-8.8 0-15.2 4-25.6 3.6-9.6 8-18 14.8-24.4 6.8-6.4 15.2-11.2 25.2-14.8 5.6-3.2 14-4.8 24.4-4.8h3.6c8 0 18.4 2.8 28 7.2 12.8 5.6 18 10.8 26.8 19.6l122.4 122 121.2-122c16-16 34.8-26.8 56-26.8h4.8c19.6 0 36 6.8 48.8 19.6 7.6 7.6 12.4 16 14.8 24.4 2.4 8.4 4 16.8 4 25.6v3.6c0 8.8-2 18-6.8 28-4.8 10.8-10.4 18-18.8 26.8L612.8 512l122.4 122.4c16.8 16.8 25.6 35.2 25.6 54.8v3.6c0 11.2-2 19.6-5.2 25.6-1.6 8.8-7.6 14.4-14 24.4-11.6 12.4-28 18.4-48.8 18.4H688c-20 0-38.4-8.8-56-26l-121.2-121.2-122.4 121.2c-17.6 17.2-34.8 26-54.8 26h-3.6c-10.8 0-18.8-1.6-24.4-4.8-10.8-4-19.2-7.6-25.2-14-7.2-7.6-12.4-16-14.8-24.4-2.4-8.4-4-16.8-4-25.6v-3.6z" fill="#FFFFFF" p-id="5660"></path></svg>