<?xml version="1.0" encoding="UTF-8"?>
<svg width="46px" height="46px" viewBox="0 0 46 46" version="1.1" xmlns="http://www.w3.org/2000/svg" xmlns:xlink="http://www.w3.org/1999/xlink">
    <!-- Generator: Sketch 63.1 (92452) - https://sketch.com -->
    <title>父母</title>
    <desc>Created with Sketch.</desc>
    <defs>
        <polygon id="path-1" points="0 0 24 0 24 21 0 21"></polygon>
    </defs>
    <g id="页面-1" stroke="none" stroke-width="1" fill="none" fill-rule="evenodd">
        <g id="正常备份-7" transform="translate(-27.000000, -240.000000)">
            <g id="父母" transform="translate(27.000000, 240.000000)">
                <g id="编组备份" fill="#F5F9FD">
                    <path d="M0.0002,23.0011 C0.0002,35.7051 10.2982,46.0021 23.0012,46.0021 C35.7052,46.0021 46.0022,35.7051 46.0022,23.0011 C46.0022,10.2981 35.7052,0.0001 23.0012,0.0001 C10.2982,0.0001 0.0002,10.2981 0.0002,23.0011" id="Fill-1"></path>
                </g>
                <g id="编组" transform="translate(11.000000, 13.000000)">
                    <mask id="mask-2" fill="white">
                        <use xlink:href="#path-1"></use>
                    </mask>
                    <g id="Clip-2"></g>
                </g>
                <g id="编组" transform="translate(11.000000, 12.000000)" fill="#F38888">
                    <path d="M16.013,4.263 C16.455,4.731 17.079,5.153 17.774,5.155 C18.461,5.156 19.081,4.743 19.524,4.285 L19.524,4.285 L20.328,4.376 C20.747,4.424 21.171,4.798 21.271,5.207 L21.271,5.207 L22.991,12.267 C23.765,12.376 24.364,13.041 24.364,13.846 L24.364,13.846 L24.364,22.781 C24.364,23.028 24.163,23.228 23.917,23.228 C23.67,23.228 23.47,23.028 23.47,22.781 L23.47,22.781 L23.47,13.846 C23.47,13.458 23.155,13.143 22.767,13.143 C22.696,13.143 22.627,13.154 22.561,13.174 C22.541,13.183 22.519,13.191 22.497,13.197 C22.244,13.303 22.065,13.554 22.065,13.846 C22.065,14.092 21.865,14.292 21.618,14.292 C21.371,14.292 21.171,14.092 21.171,13.846 C21.171,13.497 21.284,13.176 21.474,12.914 C21.423,12.839 21.384,12.754 21.362,12.662 L21.362,12.662 L20.286,8.183 C20.188,7.773 20.117,7.783 20.129,8.204 L20.129,8.204 L20.253,12.639 C20.264,13.059 20.282,13.749 20.292,14.17 L20.292,14.17 L20.493,22.659 C20.503,23.08 20.166,23.424 19.744,23.4230022 L19.744,23.4230022 L19.08,23.422 C18.659,23.421 18.305,23.076 18.295,22.655 L18.295,22.655 L18.096,14.759 C18.085,14.338 17.931,13.993 17.752,13.993 C17.574,13.992 17.418,14.336 17.406,14.758 L17.406,14.758 L17.178,22.653 C17.165,23.074 16.811,23.418 16.389,23.417 L16.389,23.417 L15.725,23.416 C15.304,23.415 14.969,23.07 14.98,22.648 L14.98,22.648 L15.212,14.161 C15.223,13.74 15.244,13.05 15.257,12.629 L15.257,12.629 L15.397,8.169 C15.41,7.748 15.339,7.739 15.239,8.148 L15.239,8.148 L14.148,12.618 C14.049,13.027 13.63,13.288 13.219,13.198 L13.219,13.198 L13.074,13.166 C12.9689967,13.1430066 12.874241,13.0992569 12.7930347,13.0400371 C12.7005286,13.0999218 12.5975864,13.1436333 12.4927,13.1668 L12.3487,13.1978 C11.9377,13.2878 11.5187,13.0268 11.4187,12.6178 L10.2007,8.9138 C10.1007,8.5048 10.0297,8.5138 10.0427,8.9358 L10.0007,10.5618 L12.7497,19.5058 L10.0007,19.5058 L9.5657,22.6488 C9.5777,23.0698 9.2427,23.4148 8.8207,23.4158 L8.1567,23.4168 C7.7357,23.4178 7.3807,23.0738 7.3687,22.6528 L7.4297,19.5058 L6.9437,19.5058 L7.0167,22.6548 C7.0067,23.0758 6.6527,23.4218 6.2317,23.4218 L5.5677,23.4228022 C5.1467,23.4238 4.8097,23.0798 4.8197,22.6588 L4.3727,19.5058 L1.5977,19.5058 L4.3467,10.5618 L4.2897,8.9698 C4.3007,8.5488 4.2297,8.5398 4.1317,8.9488 L2.9287,12.6618 C2.9047,12.7618 2.8617,12.8538 2.8037,12.9328 C3.0447,13.2128 3.1917,13.5758 3.1917,13.9728 C3.1917,14.2198 2.9927,14.4208 2.7457,14.4208 C2.4987,14.4208 2.2987,14.2198 2.2987,13.9728 C2.2987,13.5858 1.9837,13.2708 1.5957,13.2708 C1.2087,13.2708 0.8937,13.5858 0.8937,13.9728 L0.8937,22.9088 C0.8937,23.1558 0.6937,23.3558 0.4467,23.3558 C0.1997,23.3558 0.000699999999,23.1558 0.000699999999,22.9088 L0.000699999999,13.9728 C0.000699999999,13.2498 0.4847,12.6368 1.1467,12.4428 C1.1467,12.3988 1.1507,12.3538 1.1617,12.3088 L2.8917,6.8678 C2.9917,6.4578 3.4157,5.7008 3.8347,5.6528 L5.4057,5.1788 C5.8477,5.6368 6.4677,5.9218 7.1547,5.9208 C7.8497,5.9198 8.4737,5.6248 8.9157,5.1568 L10.4817,5.6198 C10.9017,5.6628 11.3277,6.4148 11.4287,6.8238 L12.8017,11.0774 L14.266,5.163 C14.3587273,4.79209091 14.7192231,4.45341322 15.0988024,4.36259429 L15.213,4.343 Z M7.6292,0.5883 C8.6132,0.5883 9.4182,1.1433 9.4182,1.8223 C9.4182,2.0053 9.3572,2.1793 9.2522,2.3363 L9.2522,2.3373 L9.2532,2.3373 L10.1082,3.1833 L9.4362,3.1833 C9.4372,3.1993 9.4392,3.2153 9.4392,3.2333 C9.4412,4.4833 8.4292,5.5003 7.1782,5.50230296 C5.9272,5.5043 4.9112,4.4923 4.9082,3.2413 C4.9082,3.2213 4.9112,3.2023 4.9112,3.1833 L4.2502,3.1833 L5.0752,2.3823 L5.0762,2.3823 C5.0772,2.3793 5.0782,2.3763 5.0792,2.3743 C4.9582,2.2073 4.8872,2.0203 4.8872,1.8223 C4.8872,1.1433 5.6912,0.5883 6.6752,0.5883 L7.6292,0.5883 Z M19.1367,-0.0006 C19.6227,-0.0006 20.0207,0.3974 20.0207,0.8834 L20.0207,0.8834 L20.0207,1.7544 L20.8197,1.7544 C20.9607,1.7544 21.0757,1.8474 21.0757,1.9594 C21.0757,2.0724 20.9607,2.1654 20.8197,2.1654 L20.8197,2.1654 L19.9977,2.1654 C20.0107,2.2664 20.0207,2.3694 20.0207,2.4754 C20.0187,3.7264 19.0027,4.7384 17.7517,4.73540665 C16.5007,4.7334 15.4877,3.7174 15.4897,2.4664 C15.4907,2.3644 15.4997,2.2644 15.5127,2.1654 L15.5127,2.1654 L14.6907,2.1654 C14.5497,2.1654 14.4357,2.0724 14.4357,1.9594 C14.4357,1.8474 14.5497,1.7544 14.6907,1.7544 L14.6907,1.7544 L15.4897,1.7544 L15.4897,0.8834 C15.4897,0.3974 15.8877,-0.0006 16.3737,-0.0006 L16.3737,-0.0006 Z" id="形状结合"></path>
                </g>
            </g>
        </g>
    </g>
</svg>