<?xml version="1.0" encoding="UTF-8"?>
<svg width="20px" height="20px" viewBox="0 0 20 20" version="1.1" xmlns="http://www.w3.org/2000/svg" xmlns:xlink="http://www.w3.org/1999/xlink">
    <!-- Generator: Sketch 63.1 (92452) - https://sketch.com -->
    <title>查看（点击）</title>
    <desc>Created with Sketch.</desc>
    <g id="页面-1" stroke="none" stroke-width="1" fill="none" fill-rule="evenodd">
        <g id="正常备份-7" transform="translate(-262.000000, -254.000000)" fill="#6E6F73">
            <g id="查看（点击）" transform="translate(262.000000, 254.000000)">
                <path d="M1.99997015,2.10522798 L16.0000298,2.10522798 L16.0000298,6.31581247 L18,6.31581247 L18,2.10522798 C18,0.942522768 17.1046018,0 16.0000298,0 L1.99997015,0 C0.895398227,0 0,0.942522768 0,2.10522798 L0,17.8946692 C0,19.0573744 0.895398227,20 1.99997015,20 L8,20 L8,17.8946692 L1.99997015,17.8946692 L1.99997015,2.10522798 Z" id="Fill-1"></path>
                <path d="M4.99989255,4 C4.44768793,4.00007326 4,4.44775463 4,5.00004884 C4,5.55224537 4.44768793,5.99990232 4.99989255,6 L13.0001319,6 C13.5523365,5.99990232 14,5.55224537 14,5.00004884 C14,4.44775463 13.5523365,4.00007326 13.0001319,4 L4.99989255,4 Z M8.00008303,9 L4.99991697,9 C4.44769887,9.00009767 4,9.44782497 4,9.99998779 C4,10.552175 4.44769887,10.9999023 4.99991697,11 L8.00008303,11 C8.55232555,10.9999023 9,10.552175 9,9.99998779 C9,9.44782497 8.55232555,9.00009767 8.00008303,9 Z M19.7060943,18.2870607 L18.1671475,16.7480904 C19.579325,14.6077536 19.1418919,11.7458453 17.1550191,10.1249082 C15.168073,8.50399554 12.2766853,8.65031081 10.4635071,10.463488 C8.65030443,12.2766896 8.50398906,15.1680514 10.1249271,17.1550207 C11.7458407,19.1418924 14.607775,19.5793253 16.748113,18.1671486 L18.2870598,19.7060944 C18.6789097,20.0979685 19.3142443,20.0979685 19.7060943,19.7060944 C20.0979686,19.3142203 20.0979686,18.6789104 19.7060943,18.2870607 Z M11,13.999939 C11,12.3431363 12.3431608,11 13.999939,11 C15.6568392,11 17,12.3431363 17,13.999939 C17,15.6568392 15.6568392,17 13.999939,17 C12.3431608,17 11,15.6568392 11,13.999939 Z" id="Fill-3"></path>
            </g>
        </g>
    </g>
</svg>