<?xml version="1.0" encoding="UTF-8"?>
<svg width="46px" height="46px" viewBox="0 0 46 46" version="1.1" xmlns="http://www.w3.org/2000/svg" xmlns:xlink="http://www.w3.org/1999/xlink">
    <!-- Generator: Sketch 63.1 (92452) - https://sketch.com -->
    <title>夫妻</title>
    <desc>Created with Sketch.</desc>
    <defs>
        <polygon id="path-1" points="0 0 24 0 24 21 0 21"></polygon>
    </defs>
    <g id="页面-1" stroke="none" stroke-width="1" fill="none" fill-rule="evenodd">
        <g id="正常备份-7" transform="translate(-27.000000, -174.000000)">
            <g id="夫妻" transform="translate(27.000000, 174.000000)">
                <g id="编组备份" fill="#F5F9FD">
                    <path d="M0.0002,23.0011 C0.0002,35.7051 10.2982,46.0021 23.0012,46.0021 C35.7052,46.0021 46.0022,35.7051 46.0022,23.0011 C46.0022,10.2981 35.7052,0.0001 23.0012,0.0001 C10.2982,0.0001 0.0002,10.2981 0.0002,23.0011" id="Fill-1"></path>
                </g>
                <g id="编组" transform="translate(11.000000, 13.000000)">
                    <mask id="mask-2" fill="white">
                        <use xlink:href="#path-1"></use>
                    </mask>
                    <g id="Clip-2"></g>
                </g>
                <g id="编组" transform="translate(13.000000, 11.000000)" fill="#C1A0F4">
                    <path d="M4.5366,4.7569 C4.9576,4.7139 5.6456,4.7169 6.0656,4.7639 L6.0656,4.7639 L7.8726,4.9669 C8.2926,5.0139 8.7136,5.3679 8.8076,5.7529 L8.8076,5.7529 L10.2853778,11.8015 L12.0131,6.0725 C12.1157,5.7305 12.47345,5.37959 12.843593,5.241386 L12.9671,5.2035 L14.4251,4.8555 C14.8351,4.7585 15.5051,4.7615 15.9151,4.8635 L15.9151,4.8635 L17.3771,5.2265 C17.7861,5.3285 18.2151,5.7225 18.3291,6.1035 L18.3291,6.1035 L20.4161,13.0285 C20.5301,13.4095 20.2871,13.7935 19.8751,13.8835 L19.8751,13.8835 L19.7251,13.9165 C19.3121,14.0065 18.8871,13.7675 18.7781,13.3855 L18.7781,13.3855 L17.4651,8.7515 C17.3561,8.3695 17.2911,8.3805 17.3201,8.7745 L17.3201,8.7745 L17.4121,10.0535 L17.4461,10.0535 L20.6241,18.9105 L17.4581,18.9105 L17.2261,23.4765 C17.2071,23.8715 16.8441,24.1945 16.4201,24.1945 L16.4201,24.1945 L16.1381,24.1945 C15.7141,24.1945 15.3731,23.8705 15.3781,23.4755 L15.3781,23.4755 L15.4391,18.9105 L14.9021,18.9105 L14.9641,23.4755 C14.9691,23.8705 14.6271,24.1945 14.2041,24.1945 L14.2041,24.1945 L13.9211,24.1945 C13.4981,24.1945 13.1351,23.8715 13.1151,23.4765 L13.1151,23.4765 L12.8841,18.9105 L9.7171,18.9105 L12.8951,10.0535 L12.9271,10.0535 L13.0211,8.7475 C13.0491,8.3535 12.9841,8.3445 12.8751,8.7255 L12.8751,8.7255 L11.5631,13.3545 C11.4551,13.7365 11.0291,13.9755 10.6171,13.8855 L10.6171,13.8855 L10.4671,13.8525 C10.3930558,13.8363253 10.3244379,13.8106547 10.2623548,13.7772123 C10.1873749,13.8265583 10.1005216,13.8631647 10.0056,13.8839 L10.0056,13.8839 L9.8546,13.9159 C9.4426,14.0059 9.0296,13.7649 8.9376,13.3789 L8.9376,13.3789 L7.8236,8.7579 C7.7306,8.3729 7.6646,8.3809 7.6766,8.7749 L7.6766,8.7749 L7.8126,13.3619 C7.8246,13.7569 7.8416,14.4029 7.8526,14.7979 L7.8526,14.7979 L8.0716,23.4759 C8.0826,23.8709 7.7436,24.1939 7.3206,24.1939 L7.3206,24.1939 L6.6536,24.1939 C6.2296,24.1939 5.8756,23.8709 5.8646,23.4769 L5.8646,23.4769 L5.6466,15.3959 C5.6356,15.0009 5.4806,14.6779 5.3016,14.6779 C5.1226,14.6779 4.9676,15.0009 4.9566,15.3959 L4.9566,15.3959 L4.7386,23.4769 C4.7286,23.8709 4.3736,24.1939 3.9496,24.1939 L3.9496,24.1939 L3.2826,24.1939 C2.8586,24.1939 2.5206,23.8709 2.5306,23.4759 L2.5306,23.4759 L2.7506,14.7979 C2.7606,14.4029 2.7786,13.7569 2.7906,13.3619 L2.7906,13.3619 L2.9256,8.7489 C2.9376,8.3549 2.8706,8.3469 2.7776,8.7319 L2.7776,8.7319 L1.6666,13.3479 C1.5736,13.7339 1.1596,13.9759 0.7476,13.8849 L0.7476,13.8849 L0.5976,13.8529 C0.1856,13.7629 -0.0744,13.3739 0.0196,12.9889 L0.0196,12.9889 L1.7956,5.7219 C1.8896,5.3369 2.3106,4.9859 2.7316,4.9429 L2.7316,4.9429 Z M15.1714,0.2392 C16.2614,0.2392 17.1714,0.9552 17.3934,1.9102 L17.3934,1.9102 L17.3944,1.9102 L17.9594,4.0692 L16.5204,4.0692 C16.1424,4.3302 15.6764,4.4862 15.1714,4.4862 C14.6654,4.4862 14.1994,4.3302 13.8214,4.0692 L13.8214,4.0692 L12.4514,4.0692 L12.9064,2.1542 C13.0184,1.0792 13.9894,0.2392 15.1714,0.2392 Z M5.3013,-0.0005 C6.5583,-0.0005 7.5773,0.9505 7.5773,2.1235 C7.5773,3.2955 6.5583,4.2465 5.3013,4.2465 C4.0443,4.2465 3.0263,3.2955 3.0263,2.1235 C3.0263,0.9505 4.0443,-0.0005 5.3013,-0.0005 Z" id="形状结合"></path>
                </g>
            </g>
        </g>
    </g>
</svg>