<?xml version="1.0" standalone="no"?><!DOCTYPE svg PUBLIC "-//W3C//DTD SVG 1.1//EN" "http://www.w3.org/Graphics/SVG/1.1/DTD/svg11.dtd"><svg t="1587722925238" class="icon" viewBox="0 0 1024 1024" version="1.1" xmlns="http://www.w3.org/2000/svg" p-id="4223" xmlns:xlink="http://www.w3.org/1999/xlink" width="200" height="200"><defs><style type="text/css"></style></defs><path d="M400.101495 1007.026964A134.828061 134.828061 0 0 1 265.51249 872.557488V421.337691A134.94759 134.94759 0 0 1 344.162193 298.821058V92.754056a75.78102 75.78102 0 0 1 151.56204 0V298.821058a134.94759 134.94759 0 0 1 78.410645 122.158048V872.557488A134.828061 134.828061 0 0 1 439.784931 1007.026964z" fill="#FFFFFF" p-id="4224"></path><path d="M419.704156 33.826544a59.047041 59.047041 0 0 1 58.807984 58.807984V310.7739a118.094082 118.094082 0 0 1 78.410646 110.802848V872.557488a118.094082 118.094082 0 0 1-117.137855 117.49644h-39.683436A118.094082 118.094082 0 0 1 282.365998 872.557488V421.218163A118.094082 118.094082 0 0 1 360.896172 310.7739V92.754056a59.047041 59.047041 0 0 1 58.807984-58.807984m0-33.826544a92.873585 92.873585 0 0 0-92.754056 92.634528v196.026614A151.920626 151.920626 0 0 0 248.539454 421.218163V872.557488a151.801097 151.801097 0 0 0 151.562041 151.442512H439.784931A151.801097 151.801097 0 0 0 590.868858 872.557488V421.218163a151.920626 151.920626 0 0 0-78.410646-132.557021V92.754056A92.873585 92.873585 0 0 0 419.704156 0z" p-id="4225"></path><path d="M332.328879 356.911871m80.203572 0l14.34341 0q80.203572 0 80.203572 80.203572l0 422.17439q0 80.203572-80.203572 80.203572l-14.34341 0q-80.203572 0-80.203572-80.203572l0-422.17439q0-80.203572 80.203572-80.203572Z" fill="#EE7156" p-id="4226"></path></svg>