<?xml version="1.0" standalone="no"?><!DOCTYPE svg PUBLIC "-//W3C//DTD SVG 1.1//EN" "http://www.w3.org/Graphics/SVG/1.1/DTD/svg11.dtd"><svg t="1585362298307" class="icon" viewBox="0 0 1024 1024" version="1.1" xmlns="http://www.w3.org/2000/svg" p-id="6623" xmlns:xlink="http://www.w3.org/1999/xlink" width="200" height="200"><defs><style type="text/css"></style></defs><path d="M512 1024c-284.444444 0-512-227.555556-512-512s227.555556-512 512-512 512 227.555556 512 512-227.555556 512-512 512zM290.133333 517.688889c-11.377778-11.377778-28.444444-11.377778-39.822222 0-11.377778 11.377778-11.377778 28.444444 0 39.822222l164.977778 164.977778c22.755556 22.755556 56.888889 22.755556 79.644444 0L819.2 398.222222c11.377778-11.377778 5.688889-28.444444 0-39.822222-11.377778-11.377778-28.444444-11.377778-39.822222 0L449.422222 682.666667 290.133333 517.688889z" fill="#01BE60" p-id="6624"></path></svg>