<?xml version="1.0" standalone="no"?><!DOCTYPE svg PUBLIC "-//W3C//DTD SVG 1.1//EN" "http://www.w3.org/Graphics/SVG/1.1/DTD/svg11.dtd"><svg t="1585108435099" class="icon" viewBox="0 0 1024 1024" version="1.1" xmlns="http://www.w3.org/2000/svg" p-id="7659" xmlns:xlink="http://www.w3.org/1999/xlink" width="200" height="200"><defs><style type="text/css"></style></defs><path d="M880.038 502.309V317.096c0-34.922-24.387-66.008-60.753-77.437l-80.376-30.024c-37.849-14.136-73.401-32.874-105.687-55.701l-84.704-59.886c-19.178-15.193-47.777-15.193-66.958 0l-84.711 59.893c-32.287 22.826-67.84 41.563-105.687 55.701l-80.366 30.017c-36.366 11.43-60.757 42.516-60.757 77.437v185.213c0 123.215 63.892 239.249 172.48 313.233L480.99 923.518c20.172 13.743 47.924 13.743 68.097 0L707.56 815.542c108.586-73.984 172.478-190.018 172.478-313.233z" fill="#FFA820" p-id="7660"></path><path d="M150.038 317.096v3.767a385.446 385.446 0 0 1 49.252-76.743c-29.907 13.845-49.252 41.884-49.252 72.976zM880.038 317.096c0-34.922-24.387-66.008-60.753-77.437l-43.493-16.246c57.666 60.623 95.779 140.014 104.247 228.069V317.096h-0.001zM572.769 111.193l-24.251-17.146c-19.178-15.193-47.777-15.193-66.958 0l-15.304 10.82a390.415 390.415 0 0 1 30.453-1.191c26.038 0.001 51.471 2.592 76.06 7.517zM496.709 873.922c-39.481 0-77.572-5.946-113.433-16.983l97.714 66.578c20.172 13.743 47.924 13.743 68.097 0L707.56 815.541c92.272-62.867 152.26-156.099 168.207-258.298-32.296 180.046-189.72 316.679-379.058 316.679z" fill="#FEAC33" p-id="7661"></path><path d="M875.766 557.244a356.148 356.148 0 0 0 4.273-54.935v-50.828c-8.467-88.054-46.581-167.446-104.247-228.069l-36.883-13.777c-37.849-14.136-73.401-32.874-105.687-55.701l-60.453-42.741c-24.589-4.926-50.022-7.516-76.06-7.516-10.25 0-20.405 0.405-30.453 1.191l-58.668 41.48a333.423 333.423 0 0 1 72.724-8.003c183.552 0 332.351 148.798 332.351 332.351s-148.8 332.35-332.352 332.35c-170.836 0-311.542-128.904-330.221-294.749 2.034 120.979 65.601 234.461 172.428 307.245l60.757 41.398c35.861 11.037 73.952 16.983 113.433 16.983 189.339-0.001 346.763-136.634 379.058-316.679zM261.177 220.841l-50.382 18.818a95.554 95.554 0 0 0-11.505 4.461 385.491 385.491 0 0 0-49.252 76.743V433.55c9.403-84.527 50.494-159.478 111.139-212.709z" fill="#FEB133" p-id="7662"></path><path d="M480.311 803.046c183.552 0 332.351-148.798 332.351-332.351s-148.799-332.35-332.351-332.35a333.43 333.43 0 0 0-72.724 8.003l-10.74 7.593c-32.287 22.826-67.84 41.563-105.687 55.701l-29.984 11.199c-60.645 53.231-101.737 128.183-111.139 212.709v68.759c0 1.998 0.019 3.994 0.052 5.988 18.68 165.845 159.386 294.749 330.222 294.749z m-16.397-630.033c154.407 0 279.579 125.172 279.579 279.579S618.321 732.171 463.914 732.171 184.335 606.999 184.335 452.592s125.172-279.579 279.579-279.579z" fill="#FEB633" p-id="7663"></path><path d="M463.914 732.171c154.407 0 279.579-125.172 279.579-279.579S618.321 173.013 463.914 173.013 184.335 298.185 184.335 452.592s125.172 279.579 279.579 279.579z m-16.398-524.49c125.262 0 226.807 101.545 226.807 226.807S572.779 661.296 447.516 661.296 220.709 559.75 220.709 434.488s101.545-226.807 226.807-226.807z" fill="#FFBC34" p-id="7664"></path><path d="M447.516 661.296c125.262 0 226.807-101.545 226.807-226.807S572.779 207.681 447.516 207.681 220.709 309.226 220.709 434.488s101.545 226.808 226.807 226.808z m-16.397-418.947c96.117 0 174.036 77.918 174.036 174.036S527.236 590.42 431.119 590.42s-174.036-77.918-174.036-174.036 77.919-174.035 174.036-174.035z" fill="#FFC134" p-id="7665"></path><path d="M431.119 590.42c96.117 0 174.036-77.918 174.036-174.036s-77.918-174.036-174.036-174.036-174.036 77.918-174.036 174.036S335.002 590.42 431.119 590.42z m-16.397-313.403c66.972 0 121.264 54.292 121.264 121.264s-54.292 121.264-121.264 121.264-121.264-54.292-121.264-121.264 54.292-121.264 121.264-121.264z" fill="#FFC634" p-id="7666"></path><path d="M414.722 398.281m-121.264 0a121.264 121.264 0 1 0 242.528 0 121.264 121.264 0 1 0-242.528 0Z" fill="#FFCB34" p-id="7667"></path><path d="M515.04 100.653c8.273 0 16.192 2.665 22.301 7.504l0.385 0.305 0.401 0.284 84.704 59.886c33.55 23.721 70.486 43.19 109.78 57.865l80.376 30.024 0.447 0.167 0.455 0.143c28.8 9.052 48.15 33.271 48.15 60.266V502.31c0 28.923-3.732 57.845-11.093 85.961-7.275 27.788-18.106 54.85-32.194 80.434-14.114 25.632-31.51 49.806-51.705 71.85-20.5 22.377-43.924 42.602-69.623 60.111L538.951 908.642c-6.799 4.632-15.292 7.183-23.914 7.183s-17.115-2.551-23.913-7.182L332.653 800.666c-25.699-17.509-49.123-37.733-69.623-60.111-20.195-22.044-37.591-46.218-51.705-71.85-14.088-25.584-24.919-52.646-32.194-80.434-7.361-28.117-11.093-57.038-11.093-85.961V317.096c0-26.994 19.352-51.213 48.154-60.266l0.455-0.143 0.446-0.167 80.367-30.017c39.298-14.68 76.233-34.148 109.779-57.865l84.711-59.893 0.4-0.283 0.384-0.304c6.111-4.839 14.033-7.505 22.306-7.505m0-18c-11.945 0-23.89 3.798-33.481 11.394l-84.711 59.893c-32.287 22.826-67.84 41.563-105.687 55.701l-80.366 30.017c-36.366 11.43-60.757 42.516-60.757 77.437v185.213c0 123.215 63.892 239.249 172.48 313.233l158.471 107.976c10.086 6.872 22.067 10.307 34.048 10.307 11.981 0 23.962-3.436 34.048-10.307l158.473-107.976c108.587-73.984 172.48-190.017 172.48-313.233V317.096c0-34.922-24.387-66.008-60.753-77.437l-80.376-30.024c-37.849-14.136-73.402-32.874-105.687-55.701l-84.704-59.886c-9.589-7.596-21.534-11.395-33.478-11.395z" fill="#FFA820" p-id="7668"></path><path d="M688.848 496.664v-90.671c0-17.099-11.614-32.315-28.932-37.911l-38.276-14.699c-18.019-6.919-34.95-16.095-50.323-27.269l-40.338-29.318c-9.134-7.437-22.75-7.437-31.884 0l-40.338 29.32c-15.377 11.176-32.304 20.35-50.327 27.271l-38.269 14.696c-17.318 5.597-28.932 20.812-28.932 37.911v90.671c0 60.322 30.424 117.128 82.132 153.349l75.461 52.859c9.61 6.728 22.823 6.728 32.428 0l75.463-52.859c51.71-36.222 82.135-93.028 82.135-153.35z" fill="#FFE3B4" p-id="7669"></path><path d="M325.633 287.514c-7.248 0-14.08-4.41-16.819-11.584-3.546-9.287 1.108-19.69 10.395-23.237 68.518-26.162 110.511-60.267 110.927-60.609 7.685-6.305 19.027-5.188 25.333 2.499 6.305 7.686 5.187 19.027-2.499 25.333-1.884 1.545-46.992 38.181-120.919 66.409a17.975 17.975 0 0 1-6.418 1.189z" fill="#FFFFFF" p-id="7670"></path><path d="M260.151 311.651c-7.311 0-14.185-4.486-16.877-11.742-3.459-9.32 1.292-19.679 10.612-23.138l10.546-3.914c9.321-3.46 19.679 1.292 23.138 10.612 3.459 9.32-1.292 19.679-10.612 23.138l-10.546 3.914a17.947 17.947 0 0 1-6.261 1.13z" fill="#FFFFFF" p-id="7671"></path></svg>