<svg width="30" height="30" xmlns="http://www.w3.org/2000/svg"><g fill="none" fill-rule="evenodd"><circle fill="#FF5B30" cx="15" cy="15" r="15"/><path d="M13.978 4.09c2.547.828 4.937 3.726 6.195 6.735.42 1.002.948 2.837.808 4.58-.128 1.593-.737 3.138-.943 4.578.046-.036 2.265-2.221 2.29-4.579.649 1.336 1.177 3.245.673 5.253-.621 2.478-2.857 4.866-5.522 5.252.46-.459 1.022-4.859-.942-5.791.037 1.681-.953 2.26-1.617 3.232-.4-.06-2.663-3.43-1.75-5.656-3.852 2.834-1.814 6.412-1.347 8.08-.552-.044-3.93-.538-4.849-5.521-1.516-8.23 8.547-9.09 7.004-16.162z" fill="#FFF"/></g></svg>