<svg width="30" height="30" xmlns="http://www.w3.org/2000/svg"><g fill="none" fill-rule="evenodd"><circle fill="#FFBE37" cx="15" cy="15" r="15"/><path d="M22.926 12.1h-5.049c1.956-7.272-1.348-7.644-1.348-7.644-1.4 0-1.11 1.115-1.216 1.3 0 3.557-3.753 6.344-3.753 6.344v10.085c0 .995 1.348 1.354 1.876 1.354h7.587c.714 0 1.295-1.885 1.295-1.885 1.877-6.422 1.877-8.333 1.877-8.333 0-1.327-1.269-1.221-1.269-1.221zm-13.438.003H6.465c-.625 0-.635.617-.635.617l.625 10.172c0 .647.644.647.644.647h2.617c.545 0 .54-.428.54-.428V12.875c0-.782-.768-.772-.768-.772z" fill="#FFF"/></g></svg>